<svg width="800" height="120" xmlns="http://www.w3.org/2000/svg"><g fill-rule="nonzero" fill="none"><g fill="#000"><path d="M58.38 42.483c-.311.69-.656 1.345-1.07 1.93-.551.794-1.034 1.346-1.379 1.656-.552.517-1.138.759-1.759.793-.448 0-1-.138-1.62-.38a4.265 4.265 0 00-1.759-.379c-.552 0-1.172.138-1.793.38-.655.276-1.172.414-1.552.414-.62.034-1.207-.242-1.793-.794-.38-.344-.862-.896-1.448-1.724a10.869 10.869 0 01-1.517-3.034c-.483-1.276-.69-2.483-.69-3.62 0-1.346.276-2.484.862-3.45a5.352 5.352 0 011.793-1.827 4.598 4.598 0 012.448-.69c.483 0 1.104.139 1.897.449.793.276 1.276.448 1.483.448.172 0 .724-.172 1.655-.517.896-.31 1.655-.448 2.276-.414 1.655.138 2.93.793 3.758 1.966-1.482.896-2.241 2.172-2.206 3.793 0 1.276.482 2.31 1.379 3.172.414.38.862.69 1.38.897-.104.31-.242.62-.346.93zm-3.828-15.07c0 1-.38 1.932-1.07 2.794-.861 1.034-1.93 1.62-3.068 1.517 0-.103-.035-.241-.035-.38 0-.965.414-1.965 1.138-2.792.38-.414.828-.759 1.414-1.07a4.252 4.252 0 011.62-.448c-.034.104 0 .242 0 .38zM61.414 30.414c0-.828.69-1.517 1.517-1.517.828 0 1.517.655 1.517 1.517 0 .827-.655 1.517-1.517 1.517-.862 0-1.517-.69-1.517-1.517zm.207 3.552h2.62v12.758h-2.62V33.966zM73.172 29.241c3.38 0 5.759 2.345 5.759 5.759s-2.414 5.759-5.828 5.759h-3.758v5.965H66.62V29.241h6.551zm-3.827 9.242h3.103c2.38 0 3.724-1.276 3.724-3.483s-1.344-3.483-3.69-3.483h-3.137v6.966zM78.862 43.103c0-2.24 1.724-3.586 4.724-3.758l3.483-.207v-.966c0-1.413-.966-2.275-2.552-2.275-1.517 0-2.448.724-2.69 1.862h-2.482c.138-2.31 2.103-4 5.276-4 3.103 0 5.069 1.62 5.069 4.207v8.793h-2.518v-2.104h-.069c-.724 1.414-2.344 2.31-4.034 2.31-2.448-.034-4.207-1.586-4.207-3.862zm8.241-1.137v-1l-3.137.206c-1.552.104-2.449.794-2.449 1.897s.931 1.828 2.345 1.828c1.793-.035 3.241-1.276 3.241-2.931zM91.034 40.345c0-4.035 2.138-6.586 5.345-6.586 1.828 0 3.276.93 4 2.344h.035v-6.862h2.62v17.483h-2.551v-2.172h-.035C99.69 46 98.241 46.93 96.38 46.93c-3.207 0-5.345-2.552-5.345-6.586zm2.69 0c0 2.69 1.31 4.38 3.38 4.38 2 0 3.344-1.725 3.344-4.38s-1.345-4.38-3.345-4.38c-2.069 0-3.379 1.725-3.379 4.38z"/></g><path d="M355 39.546c0-1.044.173-2.022.523-2.926a7.277 7.277 0 011.462-2.366 6.738 6.738 0 012.251-1.581c.873-.381 1.83-.574 2.87-.574.788 0 1.506.119 2.15.352.645.233 1.272.615 1.876 1.148V32.38h3.536V46.72h-3.536V45.5c-.604.534-1.227.915-1.875 1.148-.645.234-1.363.352-2.151.352-1.04 0-1.997-.193-2.87-.574a6.738 6.738 0 01-2.25-1.581 7.316 7.316 0 01-1.463-2.366 8.201 8.201 0 01-.523-2.933zm7.566 4.103a4.333 4.333 0 001.801-.4c.31-.145.615-.337.914-.582.298-.244.582-.54.85-.896v-4.454a4.9 4.9 0 00-.85-.89 4.728 4.728 0 00-.914-.58 3.902 3.902 0 00-.924-.315c-.306-.06-.6-.093-.877-.093a3.89 3.89 0 00-1.54.308 3.675 3.675 0 00-1.245.862c-.353.37-.63.804-.829 1.304a4.372 4.372 0 00-.298 1.63c0 .588.1 1.132.298 1.632.2.5.476.933.83 1.304.353.37.77.655 1.244.862.48.204.991.308 1.54.308zm15.946-8.014c-1.676.012-3.131 1.185-3.131 2.93v8.15h-3.536V38.66c.018-3.359 2.913-6.521 6.62-6.566h.099c3.709.045 6.6 3.21 6.619 6.566v8.05h-3.536v-8.146c-.004-1.745-1.463-2.918-3.135-2.93m8.343 3.91c0-1.043.173-2.021.523-2.925a7.277 7.277 0 011.463-2.366 6.738 6.738 0 012.25-1.581c.873-.381 1.831-.574 2.87-.574.788 0 1.51.119 2.158.352.649.233 1.271.61 1.868 1.133v-5.506h3.536v18.637h-3.536V45.51c-.593.534-1.216.911-1.868 1.14-.652.23-1.37.345-2.158.345-1.039 0-1.997-.192-2.87-.574a6.738 6.738 0 01-2.25-1.58 7.277 7.277 0 01-1.463-2.367 8.087 8.087 0 01-.523-2.93zm7.563 4.104a4.333 4.333 0 001.8-.4c.31-.145.616-.337.914-.582.299-.244.582-.54.851-.896v-4.454a4.9 4.9 0 00-.85-.89 4.728 4.728 0 00-.914-.58 3.847 3.847 0 00-.925-.315c-.306-.06-.6-.093-.876-.093a3.89 3.89 0 00-1.54.308 3.675 3.675 0 00-1.245.862c-.354.37-.63.804-.829 1.304a4.372 4.372 0 00-.298 1.63c0 .588.1 1.132.298 1.632.199.5.475.933.829 1.304.353.37.77.655 1.245.862.479.204.99.308 1.54.308zm23.67 0c.53 0 1.028-.1 1.495-.3.46-.196.88-.485 1.227-.848.35-.363.623-.796.821-1.296.2-.5.299-1.052.299-1.66 0-.595-.103-1.143-.306-1.643-.202-.5-.482-.93-.836-1.296a3.882 3.882 0 00-1.227-.856 3.641 3.641 0 00-1.477-.307c-.53 0-1.027.104-1.495.307-.46.2-.877.489-1.227.856-.35.363-.626.796-.829 1.296a4.338 4.338 0 00-.305 1.644c0 .607.099 1.159.298 1.659.199.5.475.93.821 1.296a3.67 3.67 0 001.227.848c.471.196.976.3 1.514.3zm0 3.344c-1.031 0-2-.186-2.91-.56a7.344 7.344 0 01-4.004-3.928 7.372 7.372 0 01-.593-2.963 7.2 7.2 0 01.593-2.91 7.454 7.454 0 013.997-3.955 7.37 7.37 0 012.917-.582c1.031 0 2 .193 2.91.582.91.389 1.705.918 2.383 1.588a7.533 7.533 0 011.61 2.367c.394.907.593 1.877.593 2.91a7.385 7.385 0 01-2.21 5.329 7.428 7.428 0 01-2.383 1.562 7.509 7.509 0 01-2.903.56zm10.848-15.738a1.97 1.97 0 01-.814-.17 2.208 2.208 0 01-.67-.46 2.221 2.221 0 01-.457-.674c-.11-.259-.17-.537-.17-.818 0-.289.056-.563.17-.822.107-.256.261-.485.456-.681.192-.193.42-.349.67-.46.259-.11.535-.17.815-.17.287 0 .56.056.818.17.254.108.482.263.677.46.196.196.35.425.457.68.11.264.17.538.17.827 0 .288-.056.559-.17.818-.11.252-.265.481-.457.674a2.115 2.115 0 01-1.495.626zm-1.768 1.122h3.536v14.338h-3.536V32.377zm5.164 7.169c0-1.044.173-2.022.523-2.926a7.277 7.277 0 011.463-2.366 6.738 6.738 0 012.25-1.581c.873-.381 1.83-.574 2.87-.574.788 0 1.51.119 2.158.352.649.233 1.271.61 1.868 1.133v-5.506H447v18.637h-3.536V45.51c-.593.534-1.216.911-1.868 1.14-.652.23-1.37.345-2.158.345-1.04 0-1.997-.192-2.87-.574a6.738 6.738 0 01-2.25-1.58 7.277 7.277 0 01-1.463-2.367 8.087 8.087 0 01-.523-2.93zm7.562 4.103a4.333 4.333 0 001.802-.4c.31-.145.615-.337.913-.582.299-.244.582-.54.851-.896v-4.454a4.9 4.9 0 00-.85-.89 4.728 4.728 0 00-.914-.58 3.847 3.847 0 00-.925-.315c-.306-.06-.6-.093-.877-.093a3.89 3.89 0 00-1.54.308 3.675 3.675 0 00-1.244.862c-.354.37-.63.804-.83 1.304a4.372 4.372 0 00-.297 1.63c0 .588.099 1.132.298 1.632.199.5.475.933.829 1.304.353.37.77.655 1.245.862.479.204.99.308 1.54.308zm-29.648-8.058c-2.373 0-3.415 1.23-3.415 2.974v8.15h-3.536V38.66c.018-3.359 1.948-6.658 6.954-6.658" fill="#000"/><g fill="#000"><path d="M297.036 27.826v3.41h4.319v1.223h-4.319v10.069c0 1.03.168 1.818.504 2.365.336.546.914.82 1.738.82.39 0 .725-.022 1.006-.065.282-.042.52-.096.715-.16l.162 1.158c-.52.235-1.212.354-2.078.354-.714 0-1.304-.119-1.77-.354a2.781 2.781 0 01-1.104-.981c-.27-.419-.46-.922-.568-1.512a10.546 10.546 0 01-.163-1.914v-9.78h-2.565v-1.222h2.565v-2.832l1.558-.579zm6.82 3.41l3.571 9.587c.303.75.574 1.459.812 2.123.238.665.465 1.32.682 1.962h.065c.215-.622.448-1.271.698-1.946a75.36 75.36 0 01.828-2.14l3.604-9.587h1.623l-6.202 15.442h-1.331l-5.974-15.441h1.624zM280.572 27.827C281.97 26.01 283.914 26 283.914 26s.29 1.71-1.1 3.357c-1.483 1.759-3.169 1.47-3.169 1.47s-.316-1.382.927-3zm-.75 4.199c.72 0 2.055-.976 3.793-.976 2.991 0 4.167 2.1 4.167 2.1s-2.3 1.161-2.3 3.98c0 3.178 2.866 4.273 2.866 4.273s-2.004 5.566-4.711 5.566c-1.243 0-2.21-.827-3.52-.827-1.335 0-2.66.858-3.522.858-2.472 0-5.595-5.28-5.595-9.524 0-4.177 2.644-6.368 5.122-6.368 1.612 0 2.863.918 3.7.918z"/></g><g fill="#010101"><path d="M159.369 42.469c-.3.693-.655 1.331-1.069 1.917-.562.8-1.02 1.355-1.376 1.662-.548.504-1.138.762-1.765.78-.452 0-.997-.128-1.631-.39-.638-.259-1.221-.39-1.759-.39-.562 0-1.162.128-1.807.39s-1.165.396-1.562.41c-.603.024-1.207-.241-1.807-.8-.383-.334-.862-.907-1.438-1.72-.614-.866-1.12-1.873-1.517-3.018-.424-1.238-.638-2.438-.638-3.6 0-1.33.286-2.479.862-3.438a5.046 5.046 0 011.807-1.827 4.88 4.88 0 012.445-.69c.48 0 1.11.148 1.89.442.779.293 1.279.44 1.5.44.165 0 .72-.171 1.662-.52.893-.32 1.644-.455 2.258-.4 1.67.135 2.924.793 3.759 1.98-1.493.903-2.231 2.172-2.217 3.8.013 1.265.472 2.32 1.375 3.158.41.39.866.69 1.376.904-.107.31-.224.617-.348.91zm-3.828-15.072c0 .993-.362 1.92-1.086 2.779-.872 1.02-1.927 1.61-3.072 1.517a3.279 3.279 0 01-.024-.376c0-.951.413-1.972 1.151-2.807.37-.42.835-.772 1.404-1.051.565-.276 1.1-.428 1.607-.456.013.128.02.263.02.394zM162.424 30.414c0-.838.68-1.504 1.514-1.504s1.503.666 1.503 1.504c0 .824-.665 1.503-1.503 1.503-.838 0-1.514-.68-1.514-1.503zm.207 3.562h2.617v12.752h-2.617V33.976zM174.18 29.234c3.392 0 5.758 2.342 5.758 5.745 0 3.418-2.414 5.77-5.845 5.77h-3.759v5.975h-2.713v-17.49h6.558zm-3.842 9.238h3.117c2.366 0 3.71-1.272 3.71-3.479s-1.344-3.465-3.696-3.465h-3.128v6.944h-.003zM181.476 29.234h2.593v6.873h.062c.703-1.49 2.097-2.352 4.038-2.352 2.8 0 4.472 1.866 4.472 4.752v8.22h-2.63v-7.706c0-1.88-.945-3.007-2.79-3.007-1.938 0-3.128 1.334-3.128 3.345v7.372h-2.617V29.234zM193.972 40.352c0-4.097 2.414-6.607 6.049-6.607 3.634 0 6.048 2.51 6.048 6.607 0 4.11-2.4 6.62-6.048 6.62-3.649 0-6.049-2.51-6.049-6.62zm9.431 0c0-2.824-1.334-4.449-3.382-4.449-2.049 0-3.383 1.625-3.383 4.449 0 2.838 1.334 4.462 3.383 4.462 2.062 0 3.382-1.624 3.382-4.462zM207.476 33.976h2.496v2.134h.062c.69-1.455 2.049-2.351 4.014-2.351 2.814 0 4.424 1.793 4.424 4.717v8.255h-2.63v-7.748c0-1.914-.897-2.97-2.718-2.97-1.841 0-3.03 1.311-3.03 3.287v7.431h-2.618V33.976zM231.307 42.983c-.362 2.327-2.57 3.99-5.493 3.99-3.745 0-6.014-2.535-6.014-6.56 0-4 2.303-6.668 5.903-6.668 3.542 0 5.745 2.496 5.745 6.365v.897h-9.007v.159c0 2.217 1.335 3.686 3.431 3.686 1.49 0 2.594-.752 2.945-1.866h2.49v-.003zm-8.852-3.807h6.376c-.062-1.952-1.297-3.32-3.128-3.32-1.83 0-3.113 1.392-3.248 3.32z"/></g><g fill="#000"><path d="M495.42 44.21c-2.3 0-4.17-1.772-4.17-3.958 0-2.15 1.87-3.94 4.17-3.94 1.542 0 3.062.66 3.72 1.847.04.076.102.189.102.34v3.487c0 .075-.04.226-.082.264-.719 1.187-2.157 1.96-3.74 1.96m7.562 3.016V33.333h-3.74v1.15c-1.047-.923-2.486-1.432-4.232-1.432-4.294 0-7.54 3.204-7.54 7.2 0 4.016 3.266 7.258 7.54 7.258 1.767 0 3.185-.546 4.232-1.47v1.187h3.74zm16.252 0v-7.521c0-3.695-3.143-6.654-7.13-6.654-4.006 0-7.129 2.96-7.129 6.654v7.521h3.74v-7.521c0-1.829 1.397-3.205 3.39-3.205s3.39 1.395 3.39 3.205v7.521h3.74zm9.514-3.016c-2.302 0-4.171-1.772-4.171-3.958 0-2.15 1.87-3.94 4.17-3.94 1.542 0 2.98.697 3.72 1.847.04.076.102.189.102.34v3.506c0 .075-.04.207-.082.245-.699 1.187-2.157 1.96-3.74 1.96m7.562 3.016V29.148h-3.74v5.335c-1.048-.923-2.465-1.489-4.232-1.489-4.295 0-7.541 3.242-7.541 7.239 0 4.015 3.267 7.257 7.54 7.257 1.747 0 3.185-.546 4.233-1.47v1.206h3.74zm5.732 0V39.8c0-2.186 1.254-3.355 3.658-3.355V33.05c-4.808 0-7.397 2.356-7.397 6.748v7.427h3.74zm11.835-3.185c-2.28 0-4.13-1.697-4.13-3.79 0-2.092 1.85-3.77 4.13-3.77 2.301 0 4.13 1.697 4.13 3.77 0 2.093-1.829 3.79-4.13 3.79m0 3.468c4.377 0 7.91-3.242 7.91-7.257 0-3.997-3.554-7.201-7.93-7.201-4.356 0-7.91 3.204-7.91 7.2.02 4.016 3.554 7.258 7.93 7.258m11.486-15.25c1.192 0 2.178-.905 2.178-1.998 0-1.113-.966-1.998-2.178-1.998-1.192 0-2.158.885-2.158 1.998 0 1.093.966 1.998 2.158 1.998m1.87 1.056h-3.74v13.911h3.74V33.315zm9.657 10.895c-2.302 0-4.171-1.772-4.171-3.958 0-2.15 1.87-3.94 4.17-3.94 1.521 0 2.98.697 3.72 1.847a.686.686 0 01.102.34v3.506a.504.504 0 01-.082.245c-.72 1.187-2.157 1.96-3.74 1.96m7.562 3.016V29.148h-3.74v5.335c-1.048-.923-2.465-1.451-4.232-1.451-4.295 0-7.541 3.204-7.541 7.2 0 4.016 3.267 7.277 7.54 7.277 1.747 0 3.185-.546 4.233-1.489v1.206h3.74zM604.178 47.227l6.143-13.912h-3.082l-5.034 12.065h1.048l-5.034-12.046h-3.184l6.143 13.893h3zm-9.904.17l.02-2.47h-.328c-2.198 0-3.74-1.206-3.74-3.261v-6.051h3.946v-2.3h-3.966v-3.77h-2.733v12.121c0 3.6 2.548 5.73 6.493 5.73h.308z"/></g><path d="M677.98 39.276c0-2.367 1.671-4.176 4.038-4.176 1.88 0 2.923 1.114 3.41 2.227l-1.322.627c-.348-.905-1.114-1.461-2.157-1.461-1.253 0-2.437 1.113-2.437 2.854 0 1.67 1.184 2.854 2.437 2.854 1.113 0 1.88-.557 2.297-1.462l1.323.557c-.487 1.114-1.6 2.228-3.48 2.228-2.438-.071-4.108-1.882-4.108-4.248zm10.094-3.898l-.07 1.113h.07c.418-.695 1.391-1.322 2.505-1.322 2.019 0 2.993 1.322 2.993 3.27v4.803h-1.461V38.65c0-1.6-.835-2.157-1.949-2.157-1.252 0-2.088 1.183-2.088 2.436v4.316h-1.462V31.828h1.462v3.55zm7.03 7.866v-7.866h1.391v1.252h.07c.348-.904 1.462-1.461 2.298-1.461.487 0 .766.07 1.113.209l-.556 1.391a2.489 2.489 0 00-.766-.139c-.975 0-2.019.835-2.019 2.298v4.316h-1.531zm12.946-3.968c0 2.366-1.67 4.175-4.037 4.175-2.366 0-4.037-1.809-4.037-4.175 0-2.367 1.67-4.176 4.037-4.176s4.037 1.81 4.037 4.176zm-1.462 0c0-1.81-1.252-2.855-2.575-2.855-1.322 0-2.575 1.044-2.575 2.855 0 1.81 1.253 2.854 2.575 2.854 1.323 0 2.575-1.045 2.575-2.854zm2.646-3.898h1.391v1.113h.07c.418-.765 1.462-1.322 2.437-1.322 1.252 0 2.088.557 2.505 1.531.557-.904 1.531-1.531 2.714-1.531 1.88 0 2.784 1.322 2.784 3.27v4.803h-1.531V38.65c0-1.6-.627-2.157-1.74-2.157-1.185 0-2.02 1.183-2.02 2.436v4.316h-1.46V38.65c0-1.6-.628-2.157-1.741-2.157-1.184 0-2.019 1.183-2.019 2.436v4.316h-1.461v-7.866h.07v-.001zm12.946 3.898c0-2.228 1.531-4.176 3.828-4.176 2.297 0 3.828 1.67 3.828 4.176v.278h-6.196c.07 1.67 1.253 2.575 2.506 2.575.834 0 1.74-.348 2.157-1.323l1.323.557c-.487 1.114-1.6 2.157-3.411 2.157-2.435-.067-4.035-1.878-4.035-4.244zm3.828-2.785c-1.114 0-1.949.766-2.228 1.88h4.525c-.07-.696-.627-1.88-2.297-1.88zm4.663 2.785c0-2.367 1.67-4.176 4.037-4.176 1.88 0 2.923 1.114 3.411 2.227l-1.322.557c-.348-.905-1.114-1.461-2.158-1.461-1.252 0-2.436 1.113-2.436 2.854 0 1.67 1.184 2.854 2.436 2.854 1.114 0 1.88-.557 2.298-1.462l1.322.557c-.487 1.114-1.6 2.228-3.48 2.228-2.437-.001-4.108-1.812-4.108-4.178zm8.353 1.601c0-1.74 1.6-2.714 3.411-2.714 1.044 0 1.81.278 2.088.487v-.279c0-1.184-.974-1.88-2.018-1.88-.835 0-1.6.418-1.88 1.114l-1.322-.557c.278-.695 1.184-1.88 3.202-1.88 1.88 0 3.48 1.115 3.48 3.342v4.732h-1.392V42.13h-.07c-.417.627-1.252 1.322-2.575 1.322-1.601.002-2.924-.973-2.924-2.574zm5.5-1.044s-.627-.487-1.88-.487c-1.532 0-2.157.834-2.157 1.531 0 .835.834 1.253 1.6 1.253 1.253 0 2.436-.975 2.436-2.297zm2.366 1.392l1.322-.557c.418.975 1.184 1.462 2.089 1.462.904 0 1.531-.418 1.531-1.114 0-.418-.209-.834-1.043-1.043l-1.6-.348c-.697-.21-2.09-.766-2.09-2.158 0-1.391 1.462-2.297 3.063-2.297 1.322 0 2.505.627 2.993 1.81l-1.253.556c-.278-.766-1.043-1.043-1.81-1.043-.834 0-1.53.347-1.53.974 0 .487.417.766 1.043.905l1.532.348c1.531.348 2.157 1.323 2.157 2.297 0 1.392-1.253 2.437-3.062 2.437-1.81 0-2.924-1.115-3.342-2.229zm8.352-.418V36.7h-1.391v-1.322h1.391v-2.366h1.462v2.366h1.88V36.7h-1.88v3.968c0 .905.348 1.253 1.043 1.253.28 0 .487 0 .696-.139l.487 1.253c-.348.139-.696.209-1.184.209-1.599.068-2.504-.836-2.504-2.437zm-84.152-6.055h-7.517c1.392.905 2.366 2.436 2.366 4.246 0 .348-.07.766-.139 1.113v.07c-.07.557-.277 1.044-.556 1.532l-4.733 8.283h.418a10.977 10.977 0 0010.998-10.998c-.001-1.532-.28-2.993-.837-4.246zm-10.092 9.187c-1.392 0-2.714-.627-3.62-1.531a6.986 6.986 0 01-.904-1.114l-.139-.139-4.664-8.005A11.045 11.045 0 00650 38.998c0 5.638 4.176 10.232 9.605 10.858l3.76-6.544c-.697.418-1.532.627-2.367.627zm0-15.939c-3.62 0-6.821 1.74-8.84 4.455l3.76 6.403c.07.07.07.209.07.278v-.21c0-2.436 1.809-4.524 4.106-4.872h.07c.418-.139.835-.139 1.253-.139h9.257c-1.812-3.479-5.5-5.915-9.676-5.915zm3.967 10.998a3.966 3.966 0 01-3.968 3.968 3.966 3.966 0 01-3.968-3.968c0-2.159 1.81-3.968 3.969-3.968 2.157-.07 3.967 1.74 3.967 3.968z" fill="#000"/><g><g fill="#000"><path d="M151.453 96.207c-4.706 3.473-11.54 5.326-17.42 5.326-8.24 0-15.66-3.046-21.273-8.113-.44-.4-.047-.94.48-.633 6.06 3.526 13.553 5.646 21.287 5.646 5.22 0 10.96-1.08 16.24-3.32.793-.346 1.46.514.686 1.094z"/><path d="M153.413 93.967c-.6-.774-3.98-.367-5.5-.187-.46.053-.533-.347-.12-.64 2.694-1.893 7.114-1.347 7.627-.713.52.64-.133 5.066-2.66 7.18-.387.326-.76.153-.587-.28.567-1.407 1.84-4.587 1.24-5.36zM134.2 78.953c2.653 0 2.627 2.32 2.567 3.32h-5.607c.1-1.74.94-3.32 3.04-3.32zm4.247 4.86c.333 0 .38-1.113.4-1.58.126-3.373-1.654-5.013-4.554-5.013-1.6 0-3.073.58-3.993 1.693-.853 1.02-1.347 2.46-1.347 4.4 0 1.914.434 3.34 1.267 4.347.853 1.02 2.153 1.727 4.413 1.727.854 0 2.52-.18 3.56-.7.387-.14.387-.314.387-.68v-.627c0-.34-.147-.48-.513-.36-1.2.407-2.407.567-3.134.567-1.253 0-2.346-.367-2.953-1.08-.593-.774-.793-1.647-.847-2.7 2.427.006 4.887.006 7.314.006zM111.38 77.567v-2.234c0-1.786 1.793-1.56 2.927-1.413.506.1.7.013.7-.38v-.74c0-.367-.147-.5-.654-.633-2.806-.52-5.24.04-5.24 3.6v1.86l-1.64.193c-.346.027-.473.133-.473.487v.586c0 .32.14.447.447.447h1.673v9.253c0 .32.127.447.447.447h1.366c.32 0 .447-.127.447-.447V79.34h3.033c.32 0 .447-.127.447-.447v-.88c0-.32-.147-.446-.447-.446h-3.033zM118.587 77.58h-1.34c-.32 0-.447.127-.447.447v10.566c0 .32.127.447.447.447h1.34c.32 0 .446-.127.446-.447V78.027c.007-.254-.126-.447-.446-.447zm-.674-4.773c-.786 0-1.393.533-1.393 1.373 0 .853.553 1.373 1.413 1.373s1.414-.533 1.414-1.373c0-.927-.587-1.373-1.434-1.373zM157.173 89.04h-1.433c-.32 0-.5-.127-.627-.447l-4.153-10.486c-.127-.32-.047-.527.293-.527h1.534c.306 0 .433.193.533.447l3.14 8.94 3.127-8.94c.14-.32.28-.447.6-.447h1.373c.38 0 .473.2.327.52l-4.16 10.493c-.114.254-.247.447-.554.447zM144.033 86.1c0 2.667 1.84 3.107 3.167 3.107.713 0 1.293-.074 1.867-.194.7-.206.693-.32.693-.64v-.813c0-.32-.153-.42-.453-.347-.54.087-.894.147-1.427.174-1.473-.1-1.613-.574-1.613-2.014v-6.026h2.966c.32 0 .447-.127.447-.447V78c0-.32-.147-.447-.447-.447h-2.966V74.8c0-.253-.127-.447-.447-.447h-.9c-.347 0-.527.127-.553.474l-.287 2.78-1.673.206c-.347.034-.474.207-.474.554v.52c0 .32.194.446.447.446h1.653V86.1zM124.127 79.233l-.167-1.293c-.073-.32-.253-.36-.52-.36h-1c-.32 0-.447.127-.447.447v10.566c0 .32.127.447.447.447h1.34c.32 0 .447-.127.447-.447v-8c.873-.64 1.626-1.073 3.34-1.073.42.007 1.013.167 1.013-.28v-1.32c0-.293-.173-.453-.74-.453-1.413 0-2.367.353-3.713 1.766z"/></g><g fill="#000"><path d="M60.092 81.2c3.539 0 3.45 3.096 3.362 4.423h-7.43c.176-2.3 1.326-4.423 4.068-4.423zm5.662 6.458c.442 0 .53-1.504.53-2.123.178-4.512-2.21-6.635-6.015-6.635-2.123 0-4.069.796-5.307 2.212-1.15 1.326-1.77 3.273-1.77 5.838s.62 4.423 1.681 5.75c1.15 1.327 2.83 2.3 5.839 2.3 1.15 0 3.361-.265 4.688-.885.53-.177.53-.442.53-.884v-.796c0-.443-.176-.62-.707-.443-1.592.531-3.185.796-4.158.796-1.68 0-3.096-.442-3.892-1.415-.796-1.061-1.061-2.211-1.15-3.538 3.185-.177 6.458-.177 9.73-.177zM29.838 79.43v-3.007c0-2.388 2.389-2.035 3.893-1.858.619.089.884 0 .884-.53v-.973c0-.443-.177-.708-.884-.797-3.716-.707-6.9 0-6.9 4.777v2.477l-2.212.177c-.442.089-.619.177-.619.708v.796c0 .354.177.53.62.53h2.21v12.297c0 .442.178.62.62.62h1.77c.442 0 .618-.178.618-.62V81.73h4.07c.442 0 .619-.177.619-.62v-1.15c0-.442-.177-.619-.62-.619h-4.069v.089zM39.392 79.43h-1.769c-.442 0-.62.178-.62.62v13.977c0 .442.178.62.62.62h1.77c.442 0 .619-.178.619-.62V79.962c0-.266-.177-.531-.62-.531zm-.884-6.368c-1.062 0-1.858.707-1.858 1.857s.708 1.858 1.858 1.858c1.15 0 1.857-.708 1.857-1.858 0-1.238-.796-1.857-1.857-1.857zM46.735 81.642l-.177-1.68c-.089-.443-.354-.443-.708-.443h-1.327c-.442 0-.62.177-.62.62v13.976c0 .443.178.62.62.62h1.77c.442 0 .619-.177.619-.62V83.5c1.15-.885 2.123-1.415 4.423-1.415.53 0 1.327.177 1.327-.354v-1.77c0-.353-.266-.619-.974-.619-1.946-.088-3.184.354-4.953 2.3z"/></g><g fill="#000"><path d="M213 75c-6.627 0-12 5.373-12 12s5.373 12 12 12 12-5.373 12-12-5.373-12-12-12zm2.92 16.222v.921h-2.484v.007h-.921V81.831h.921v9.39h2.485zM213 97.045c-5.546 0-10.045-4.496-10.045-10.045a10.044 10.044 0 0110.483-10.036l-.002.915a9.131 9.131 0 108.685 9.532l.003-.027h-6.19v-.92h7.095c.009.177.014.355.014.536.002 5.546-4.497 10.045-10.043 10.045zm-2.335-13.847a1.411 1.411 0 11-2.823 0 1.411 1.411 0 012.823 0zM231 92.703h8.394v-2.488h-5.312v-8.913H231v11.4zm18.534-10.599c-.962-.732-2.2-1.104-3.68-1.104-1.756 0-3.223.53-4.244 1.53-1.064 1.045-1.629 2.586-1.629 4.454 0 1.996.597 3.682 1.678 4.743.849.834 1.98 1.273 3.276 1.273 2.843 0 3.497-1.674 3.497-1.674v1.372H251v-6.435h-5.11v2.015h2.352s.023 2.536-2.405 2.536c-.617 0-1.166-.22-1.588-.635-.658-.647-1.007-1.735-1.007-3.145 0-2.339.945-3.734 2.53-3.734.99 0 1.736.597 1.926 1.501h3.268c-.168-1.314-.535-1.999-1.432-2.697z"/></g><path d="M380.935 84.29a3.072 3.072 0 00-.988-.056c-.166.02-.326.053-.48.114a1.188 1.188 0 00-.333.186.72.72 0 00-.282.466.58.58 0 00.134.44c.12.148.292.25.46.323.158.069.323.12.488.163.193.05.389.094.584.137.445.1.884.201 1.311.37.755.297 1.474.801 1.768 1.626.127.356.158.735.107 1.107-.064.45-.244.878-.52 1.24-.217.28-.478.506-.78.686a3.886 3.886 0 01-1.342.479c-.366.064-.73.086-1.103.071a5.78 5.78 0 01-1.351-.214 5.897 5.897 0 01-2.172-1.155l1.08-1.443c.398.308.815.557 1.29.733.31.114.625.19.953.231.294.036.604.044.901.008.214-.028.427-.079.623-.176.147-.073.284-.173.389-.305a.703.703 0 00.056-.817 1.059 1.059 0 00-.382-.361 2.622 2.622 0 00-.625-.255c-.261-.076-.525-.13-.792-.188-.757-.163-1.639-.364-2.269-.911a2.15 2.15 0 01-.645-.97 2.246 2.246 0 01-.013-1.275c.094-.338.254-.651.475-.924.308-.379.699-.649 1.143-.835.336-.14.679-.226 1.037-.274.462-.062.93-.054 1.39.017.823.125 1.59.44 2.266.927-.338.463-.674.926-1.011 1.39a4.307 4.307 0 00-1.367-.555zm-16.622-6.012h-2.023v13.117h2.023V78.278zm10.451 13.117V82.9h-2.022c0 .545 0 3.469-.003 4.013-.002.235-.002.469-.018.703-.01.15-.025.3-.053.45-.053.28-.145.548-.3.792-.376.59-1.034.878-1.704.886-.681.007-1.329-.273-1.695-.884a2.43 2.43 0 01-.287-.799 7.243 7.243 0 01-.099-1.148 36.053 36.053 0 01-.008-.743c-.002-.422-.002-.842-.002-1.265v-2.008h-2.022c0 .693 0 2.752.002 3.444.003.33.005.664.016.995.007.242.017.484.04.725.051.573.158 1.133.417 1.66.536 1.079 1.575 1.702 2.733 1.84.57.066 1.154.018 1.702-.145.529-.156 1.088-.436 1.479-.84l.056.82h1.768zm-24.325-1.094c-.462-.479-.925-.957-1.387-1.433-.358.333-.798.56-1.273.667a2.748 2.748 0 01-1.435-.059 2.243 2.243 0 01-1.153-.845c-.282-.4-.43-.88-.455-1.364a2.77 2.77 0 01.29-1.41 2.07 2.07 0 011.051-.964 2.807 2.807 0 011.423-.196c.49.058.937.236 1.351.501l1.22-1.55a4.556 4.556 0 00-2.388-.972 4.8 4.8 0 00-2.548.415c-.803.382-1.44.99-1.86 1.776-.412.771-.584 1.665-.544 2.53.041.868.303 1.733.806 2.456a4.114 4.114 0 002.063 1.535c.823.282 1.73.328 2.578.15a4.354 4.354 0 002.261-1.237zm9.466 1.094V82.9h-2.022c0 .545 0 3.469-.003 4.013-.002.235-.002.469-.018.703-.01.15-.025.3-.053.45-.053.28-.145.548-.3.792-.376.59-1.034.878-1.704.886-.681.007-1.33-.273-1.695-.884a2.43 2.43 0 01-.287-.799 7.243 7.243 0 01-.1-1.148 36.053 36.053 0 01-.007-.743c-.002-.422-.002-.842-.002-1.265v-2.008h-2.022c0 .693 0 2.752.002 3.444.003.33.005.664.015.995.008.242.018.484.041.725.05.573.158 1.133.417 1.66.536 1.079 1.575 1.702 2.733 1.84.57.066 1.154.018 1.702-.145.529-.156 1.088-.436 1.479-.84l.056.82h1.768zm-18.672-4.232c-.006 1.17-.43 2.321-1.266 3.163-.833.843-1.976 1.28-3.147 1.275-1.171-.005-2.312-.45-3.14-1.298-.828-.85-1.248-2.002-1.243-3.173.006-1.17.43-2.321 1.266-3.164.833-.842 1.976-1.28 3.147-1.275 1.171.005 2.312.45 3.14 1.298.828.848 1.248 2.003 1.243 3.174zm-1.987-.008c0-.173-.015-.343-.046-.514a2.653 2.653 0 00-.135-.48 2.352 2.352 0 00-.495-.78 2.218 2.218 0 00-.76-.509 2.502 2.502 0 00-.965-.188c-.168 0-.333.015-.498.046a2.466 2.466 0 00-.881.354 2.246 2.246 0 00-.635.64 2.363 2.363 0 00-.216.423 2.69 2.69 0 00-.185.993c0 .173.014.344.045.514a2.532 2.532 0 00.348.903 2.228 2.228 0 001.042.866 2.52 2.52 0 00.965.188c.168 0 .335-.015.498-.046a2.466 2.466 0 00.881-.353 2.246 2.246 0 00.635-.642c.087-.132.158-.275.216-.422.061-.155.107-.316.138-.479.03-.17.048-.343.048-.514zM324.059 87a9.929 9.929 0 01-3.704 7.734 9.954 9.954 0 01-3.945 1.932c-.831.201-1.662.29-2.513.318-.63.02-1.26.015-1.89.015h-8.955c-.63 0-1.26.006-1.888-.015a12.432 12.432 0 01-2.51-.315 9.954 9.954 0 01-3.945-1.932 9.923 9.923 0 01-.005-15.471 9.954 9.954 0 013.945-1.932c.831-.201 1.662-.29 2.513-.318.63-.02 1.26-.015 1.89-.015h8.955c.63 0 1.26-.006 1.888.015.85.028 1.681.117 2.51.315a9.954 9.954 0 013.945 1.932A9.923 9.923 0 01324.059 87zm-6.659.003c0-1.08-.53-2.08-1.415-2.69a3.525 3.525 0 00-1.458-.576c-.526-.086-1.049-.068-1.575-.068H302.11c-.525 0-1.049-.018-1.575.068a3.56 3.56 0 00-1.455.573A3.268 3.268 0 00297.66 87c0 1.08.531 2.08 1.415 2.69.442.306.93.489 1.458.575.526.087 1.05.069 1.575.069h10.843c.526 0 1.05.018 1.575-.069a3.56 3.56 0 001.456-.572 3.282 3.282 0 001.417-2.69z" fill="#1C1E20"/><path d="M587.89 86.44s-1.055-.653-1.709-.904c0 0-2.023-.936-2.426-1.386 0 0-.79-.742-.33-1.605 0 0 .194-.565 1.025-.565 0 0 1.088.058 1.088.952v1.26h3.89l-.005-1.85s.298-3.034-4.58-3.17c0 0-3.838-.25-4.936 1.815 0 0-.434.46-.434 2.065v1.161s-.042 1.339.637 2.201c0 0 .387.565 1.34 1.187 0 0 1.934 1.04 3.094 1.637 0 0 1.172.67 1.02 1.73 0 0-.094 1.093-1.229 1.046 0 0-1.035-.047-1.035-1.119v-1.254h-4.141v1.824s-.115 3.493 5.208 3.493c0 0 5.087.105 5.323-3.582v-1.484s.183-2.26-1.8-3.451zm-19.905-6.839l-1.302 8.162h-.303l-1.245-8.088h-6.494l-.324 14.776h3.848l.047-11.132h.304l2.039 11.132h4.047l2.003-11.127h.266l.094 11.127h3.864l-.418-14.85h-6.426zm-22.892.063l-2.556 14.771h4.14l1.517-11.45h.34l1.516 11.45h4.136l-2.562-14.77h-6.53zm86.871 6.573v2.18h1.062v2.337c0 1.145-.978 1.166-.978 1.166-1.187 0-1.145-1.087-1.145-1.087v-8.09c0-.83 1.056-.878 1.056-.878 1.014 0 1.02.994 1.02.994v1.229h3.9c.126-2.4-.35-2.98-.35-2.98-.968-2.17-4.628-2.056-4.628-2.056-5.62 0-4.998 4.314-4.998 4.314v7.822c.12 4.047 5.657 3.634 5.751 3.629 2.463-.272 3.206-1.056 3.206-1.056.684-.507.862-1.213.862-1.213.194-.408.246-1.72.246-1.72V86.23l-5.004.006zm-12.92 2.405h-.167l-3.959-9.035h-4.732V94.45h3.854l-.23-9.035h.172l4.1 9.035h4.59v-14.85h-3.9l.272 9.04zm-18.259 2.112s.058 1.219-1.072 1.219c0 0-1.187.062-1.187-1.187l-.01-11.169h-4.225v11.08s-.434 4.193 5.485 4.193c0 0 5.145.063 5.145-4V79.617h-4.13l-.006 11.137zm-63.749-4.313s-1.056-.654-1.71-.905c0 0-2.023-.936-2.426-1.386 0 0-.79-.742-.324-1.605 0 0 .193-.565 1.025-.565 0 0 1.087.058 1.087.952v1.26h3.89l-.005-1.85s.298-3.034-4.58-3.17c0 0-.366-.026-.905.006 0 0-2.954.157-4.01 1.778-.005.01-.016.02-.021.03 0 0-.429.461-.429 2.066v1.161s-.047 1.339.638 2.201c0 0 .387.565 1.339 1.187 0 0 1.934 1.04 3.095 1.637 0 0 1.171.67 1.02 1.73 0 0-.094 1.093-1.224 1.046 0 0-1.035-.047-1.035-1.119v-1.26h-4.157v1.83s-.115 3.493 5.208 3.493c0 0 5.087.105 5.328-3.582v-1.484s.178-2.26-1.804-3.451z" fill="#000"/><g fill="#000"><path d="M741.153 93.19l-3.8-5.367-3.796 5.367h-1.565l4.569-6.486-4.175-5.894h1.566l3.401 4.808 3.402-4.808h1.561l-4.17 5.894 4.568 6.486h-1.561zm-29.617-.004l-4.573-6.482 4.174-5.894h-1.565l-3.401 4.808-3.398-4.808h-1.561l4.17 5.894-4.572 6.482h1.565l3.796-5.367 3.8 5.367h1.565z"/><path d="M719.966 87.325c-.236-.2-.5-.37-.784-.502a2.725 2.725 0 001.436-2.401c0-.767-.28-3.265-3.884-3.265h-4.853v5.172h-1.616c-.208.273-.684.932-.868 1.205h2.484v5.619h4.853c2.628 0 4.26-1.342 4.26-3.502.004-.944-.352-1.743-1.028-2.326m-6.74-4.915h3.512c.948 0 2.54.237 2.54 1.907 0 1.261-.928 2.012-2.54 2.012h-3.513v-3.92zm3.508 9.494h-3.513v-4.366h3.513c1.332 0 2.924.37 2.924 2.088 0 1.98-1.832 2.278-2.924 2.278m10.576-11.02c-3.356 0-5.704 2.578-5.704 6.269 0 3.694 2.344 6.269 5.704 6.269 3.352 0 5.692-2.575 5.692-6.27 0-3.69-2.34-6.268-5.692-6.268m0 11.269c-2.556 0-4.348-2.057-4.348-5 0-2.944 1.792-5 4.348-5 2.552 0 4.336 2.056 4.336 5 0 2.943-1.784 5-4.336 5m-47.338-12.278l-.008.009A9.987 9.987 0 00677 87a9.968 9.968 0 002.036 6.056c.012.016.036.028.052.016s.02-.032.012-.052c-.76-2.357 3.12-8.072 5.128-10.466.008-.008.016-.016.016-.028s-.008-.024-.02-.032c-3.376-3.37-4.276-2.598-4.264-2.61m13.989-.009l.008.009a9.977 9.977 0 012.96 7.116 9.968 9.968 0 01-2.036 6.056c-.012.016-.036.028-.052.016s-.016-.032-.012-.052c.76-2.357-3.12-8.076-5.124-10.47-.008-.008-.016-.016-.016-.028 0-.016.008-.024.02-.032 3.376-3.37 4.272-2.594 4.26-2.606M686.96 77c2.009 0 3.665.554 5.189 1.462.02.008.024.032.016.048s-.028.02-.048.016c-1.928-.418-4.86 1.253-5.137 1.422-.008.004-.012.008-.02.008a.03.03 0 01-.02-.008c-.736-.426-3.444-1.852-5.152-1.41-.02.004-.04 0-.048-.016-.008-.02 0-.04.016-.048 1.524-.92 3.2-1.474 5.204-1.474m0 8.02c.012 0 .024.008.032.016 2.98 2.277 8.08 7.9 6.525 9.49l.004-.004v.004h-.004a9.905 9.905 0 01-6.56 2.474 9.887 9.887 0 01-6.557-2.474l-.004-.004.004.004c-1.556-1.59 3.544-7.217 6.524-9.49a.06.06 0 01.036-.016m78.772-3.86v9.844l-7.225-9.851-1.184-.004v11.988h1.328V83.51l7.08 9.635 1.333.004V81.16h-1.332zm-15.31-.28c-3.355 0-5.703 2.578-5.703 6.269 0 3.694 2.348 6.273 5.704 6.273 3.352 0 5.692-2.579 5.692-6.273 0-3.687-2.34-6.27-5.692-6.27m0 11.274c-2.556 0-4.348-2.057-4.348-5.004 0-2.944 1.792-5 4.348-5 2.552 0 4.336 2.056 4.336 5-.004 2.943-1.784 5.004-4.336 5.004m19.473-.181v-4.434h6.572v-1.173h-6.572v-4.04h7.02v-1.172h-8.356v11.992H777v-1.173h-7.104z"/></g><path d="M447.459 78.951c4.453 0 8.08 3.57 8.08 8.023 0 4.456-3.624 8.026-8.08 8.026-4.456 0-8.054-3.57-8.054-8.026 0-4.453 3.598-8.023 8.054-8.023zm14.35.307v6.067l6.05-6.05h10.744v8.436c0 2.449.593 3.214 1.884 3.214 1.273 0 2.098-.65 2.688-1.68v-9.97h5.25v15.398h-1.12l-2.362-2.036c-.974 1.12-2.98 2.36-5.162 2.36-4.6 0-6.428-2.804-6.428-5.842v-9.15l-6.647 6.644 8.023 8.026h-6.605l-6.315-6.255v6.258h-5.25v-15.42h5.25zM431.53 75c4.334 0 7.873 2.948 7.873 6.577 0 2.212-1.356 4.188-3.423 5.397l5.557 7.717h-5.959l-4.73-6.565h-1.59v6.55h-5.25V75h7.521zm15.927 7.758c-1.386 0-2.567 1.884-2.567 4.216 0 2.333 1.18 4.22 2.567 4.22 1.418 0 2.596-1.887 2.596-4.22 0-2.332-1.176-4.216-2.596-4.216zm-16.575-4.485h-1.623v6.578h1.623a3.284 3.284 0 003.274-3.274c0-1.83-1.472-3.304-3.274-3.304z" fill="#000"/></g></g></svg>