<svg width="321" height="187" xmlns="http://www.w3.org/2000/svg"><g fill-rule="nonzero" fill="none"><g fill="#000"><path d="M34.103 32.386a9.258 9.258 0 01-.855 1.545c-.441.635-.827 1.076-1.103 1.324-.442.414-.91.607-1.407.635-.359 0-.8-.11-1.297-.304a3.412 3.412 0 00-1.407-.303c-.44 0-.937.11-1.434.303-.524.22-.938.331-1.241.331-.497.028-.966-.193-1.435-.634-.303-.276-.69-.717-1.158-1.38a8.695 8.695 0 01-1.214-2.427A8.13 8.13 0 0121 28.579c0-1.076.22-1.986.69-2.758a4.282 4.282 0 011.434-1.462 3.679 3.679 0 011.959-.552c.386 0 .883.11 1.517.359.634.22 1.02.358 1.186.358.138 0 .58-.138 1.324-.414.718-.248 1.324-.358 1.821-.33 1.324.11 2.345.634 3.007 1.572-1.186.717-1.793 1.738-1.766 3.034 0 1.02.387 1.848 1.104 2.538.33.304.69.552 1.103.717-.082.249-.193.497-.276.745zm-3.062-12.055c0 .8-.303 1.545-.855 2.235-.69.827-1.545 1.296-2.455 1.213 0-.082-.028-.193-.028-.303 0-.773.331-1.573.91-2.235a4.065 4.065 0 011.132-.855c.441-.22.883-.33 1.296-.358-.027.082 0 .193 0 .303zM36.531 22.731c0-.662.552-1.214 1.214-1.214.662 0 1.214.524 1.214 1.214 0 .662-.525 1.214-1.214 1.214-.69 0-1.214-.552-1.214-1.214zm.166 2.841h2.096V35.78h-2.096V25.572zM45.938 21.793c2.703 0 4.607 1.876 4.607 4.607 0 2.731-1.931 4.607-4.662 4.607h-3.007v4.772h-2.18V21.793h5.242zm-3.062 7.393h2.483c1.903 0 2.979-1.02 2.979-2.786s-1.076-2.786-2.952-2.786h-2.51v5.572zM50.49 32.883c0-1.793 1.379-2.87 3.779-3.007l2.786-.166v-.772c0-1.131-.772-1.82-2.041-1.82-1.214 0-1.959.579-2.152 1.489h-1.986c.11-1.848 1.683-3.2 4.22-3.2 2.483 0 4.056 1.296 4.056 3.365v7.035h-2.014v-1.683h-.055c-.58 1.131-1.876 1.848-3.228 1.848-1.958-.027-3.365-1.269-3.365-3.09zm6.593-.91v-.8l-2.51.165c-1.242.083-1.96.634-1.96 1.517 0 .883.746 1.462 1.877 1.462 1.434-.027 2.593-1.02 2.593-2.345zM60.228 30.676c0-3.228 1.71-5.27 4.275-5.27 1.463 0 2.621.746 3.2 1.877h.028v-5.49h2.097V35.78h-2.042v-1.738h-.027c-.607 1.159-1.766 1.904-3.256 1.904-2.565 0-4.275-2.042-4.275-5.27zm2.151 0c0 2.152 1.049 3.503 2.704 3.503 1.6 0 2.676-1.379 2.676-3.503s-1.076-3.504-2.676-3.504c-1.655 0-2.704 1.38-2.704 3.504z"/></g><g fill="#000"><path d="M200.837 21.391v2.599h3.29v.931h-3.29v7.672c0 .784.128 1.385.384 1.801.256.417.696.625 1.324.625.297 0 .552-.016.767-.049.214-.032.395-.073.544-.122l.124.882c-.396.18-.924.27-1.583.27-.545 0-.994-.09-1.349-.27a2.119 2.119 0 01-.84-.747 3.143 3.143 0 01-.434-1.152 8.035 8.035 0 01-.124-1.459v-7.45h-1.954v-.932h1.954v-2.158l1.187-.44zm5.196 2.598l2.721 7.305c.231.572.437 1.111.619 1.617.18.507.354 1.005.519 1.495h.05c.164-.474.341-.968.531-1.483.19-.515.4-1.058.631-1.63l2.746-7.304h1.237l-4.725 11.765h-1.015l-4.551-11.765h1.237zM188.293 21.392c1.065-1.385 2.546-1.392 2.546-1.392s.22 1.303-.838 2.558c-1.13 1.34-2.414 1.12-2.414 1.12s-.241-1.053.706-2.286zm-.57 3.2c.547 0 1.564-.744 2.888-.744 2.28 0 3.176 1.6 3.176 1.6s-1.754.884-1.754 3.031c0 2.422 2.184 3.256 2.184 3.256s-1.526 4.242-3.589 4.242c-.947 0-1.684-.63-2.682-.63-1.017 0-2.026.653-2.683.653-1.884 0-4.263-4.023-4.263-7.257 0-3.182 2.014-4.85 3.903-4.85 1.228 0 2.181.698 2.82.698z"/></g><g fill="#010101"><path d="M103.095 32.375a8.506 8.506 0 01-.855 1.534c-.45.64-.817 1.084-1.1 1.33-.44.402-.911.61-1.413.623-.361 0-.797-.102-1.305-.312-.51-.207-.976-.311-1.407-.311-.45 0-.93.102-1.445.311-.516.21-.933.318-1.25.329-.483.019-.966-.193-1.446-.64-.306-.268-.69-.726-1.15-1.377a9.555 9.555 0 01-1.214-2.414c-.339-.99-.51-1.95-.51-2.88 0-1.065.229-1.983.69-2.75a4.036 4.036 0 011.445-1.462 3.904 3.904 0 011.956-.552c.383 0 .888.119 1.512.353.623.235 1.023.353 1.2.353.132 0 .576-.138 1.33-.416.714-.257 1.315-.364 1.806-.32 1.335.107 2.34.634 3.007 1.583-1.194.723-1.785 1.738-1.774 3.04.011 1.013.378 1.857 1.101 2.527.328.312.693.552 1.1.723-.085.248-.179.494-.278.728zm-3.062-12.058c0 .795-.29 1.537-.869 2.224-.698.816-1.542 1.288-2.458 1.213a2.623 2.623 0 01-.02-.3c0-.762.332-1.578.922-2.246a3.55 3.55 0 011.123-.841c.452-.22.88-.342 1.286-.364.01.102.016.21.016.314zM105.54 22.731c0-.67.543-1.203 1.21-1.203.668 0 1.203.533 1.203 1.203 0 .66-.532 1.203-1.203 1.203a1.21 1.21 0 01-1.21-1.203zm.165 2.85h2.094v10.201h-2.094V25.581zM114.943 21.788c2.715 0 4.607 1.873 4.607 4.595 0 2.734-1.93 4.616-4.676 4.616h-3.006v4.78h-2.171V21.788h5.246zm-3.073 7.39h2.494c1.893 0 2.968-1.018 2.968-2.784 0-1.765-1.075-2.772-2.957-2.772h-2.502v5.556h-.003zM120.78 21.788h2.075v5.498h.05c.563-1.192 1.677-1.882 3.23-1.882 2.24 0 3.578 1.493 3.578 3.802v6.576h-2.105v-6.165c0-1.504-.756-2.406-2.231-2.406-1.55 0-2.503 1.068-2.503 2.676v5.898h-2.093V21.788zM130.778 30.681c0-3.277 1.931-5.285 4.839-5.285 2.907 0 4.838 2.008 4.838 5.285 0 3.289-1.92 5.297-4.838 5.297-2.92 0-4.84-2.008-4.84-5.297zm7.545 0c0-2.259-1.068-3.558-2.706-3.558-1.64 0-2.707 1.3-2.707 3.558 0 2.27 1.068 3.57 2.707 3.57 1.65 0 2.706-1.3 2.706-3.57zM141.58 25.58h1.998v1.708h.05c.551-1.164 1.638-1.881 3.21-1.881 2.252 0 3.54 1.434 3.54 3.774v6.604h-2.105v-6.199c0-1.53-.717-2.375-2.174-2.375-1.473 0-2.425 1.048-2.425 2.629v5.945h-2.093V25.58zM160.646 32.786c-.29 1.862-2.056 3.192-4.395 3.192-2.996 0-4.811-2.028-4.811-5.247 0-3.2 1.843-5.335 4.723-5.335 2.833 0 4.596 1.997 4.596 5.092v.718h-7.206v.126c0 1.774 1.068 2.95 2.745 2.95 1.192 0 2.074-.602 2.356-1.493h1.992v-.003zm-7.082-3.045h5.1c-.049-1.562-1.036-2.657-2.501-2.657-1.465 0-2.491 1.115-2.599 2.657z"/></g><path d="M234 30.782c0-.73.123-1.415.373-2.048a5.08 5.08 0 011.043-1.656c.447-.47.983-.84 1.606-1.107a5.144 5.144 0 012.046-.402c.563 0 1.075.083 1.535.247.46.163.906.43 1.337.803v-.853h2.523v10.037h-2.523v-.853c-.43.373-.875.64-1.337.804-.46.163-.972.246-1.535.246a5.144 5.144 0 01-2.046-.402 4.807 4.807 0 01-1.606-1.107 5.107 5.107 0 01-1.043-1.656 5.646 5.646 0 01-.373-2.053zm5.397 2.872a3.147 3.147 0 001.285-.28c.22-.1.439-.236.651-.407a3.68 3.68 0 00.607-.627v-3.118a3.46 3.46 0 00-1.258-1.03 2.82 2.82 0 00-.66-.22 3.375 3.375 0 00-.625-.065 2.82 2.82 0 00-1.098.216 2.623 2.623 0 00-.888.604c-.253.259-.45.562-.592.912a3.01 3.01 0 00-.212 1.14c0 .413.07.794.212 1.144.142.35.34.653.592.912.252.26.549.459.888.604a2.82 2.82 0 001.098.215zm11.374-5.61c-1.195.009-2.233.83-2.233 2.051V35.8h-2.522v-5.637c.013-2.351 2.078-4.565 4.721-4.596h.071c2.646.03 4.709 2.247 4.722 4.596v5.635h-2.523v-5.703c-.002-1.22-1.043-2.042-2.236-2.05m5.952 2.737c0-.73.123-1.415.373-2.048a5.08 5.08 0 011.043-1.656c.447-.47.983-.84 1.605-1.107a5.144 5.144 0 012.047-.402c.563 0 1.078.083 1.54.247.462.163.907.427 1.332.793v-3.855h2.523V35.8h-2.523v-.842a3.976 3.976 0 01-1.332.798c-.465.161-.977.241-1.54.241a5.144 5.144 0 01-2.047-.401 4.807 4.807 0 01-1.605-1.107 5.08 5.08 0 01-1.043-1.657 5.567 5.567 0 01-.373-2.05zm5.394 2.872a3.147 3.147 0 001.285-.28c.22-.1.439-.236.652-.407a3.68 3.68 0 00.607-.627v-3.118a3.46 3.46 0 00-1.259-1.03 2.78 2.78 0 00-.66-.22 3.375 3.375 0 00-.625-.065 2.82 2.82 0 00-1.098.216 2.623 2.623 0 00-.888.604c-.253.259-.45.562-.591.912a3.01 3.01 0 00-.213 1.14c0 .413.07.794.213 1.144a2.714 2.714 0 001.48 1.516 2.82 2.82 0 001.097.215zm16.885 0c.378 0 .733-.07 1.066-.21.329-.137.628-.34.875-.593.25-.254.444-.558.586-.908a3.06 3.06 0 00.213-1.16c0-.418-.073-.802-.218-1.152a2.77 2.77 0 00-1.471-1.506 2.64 2.64 0 00-1.054-.215 2.684 2.684 0 00-1.942.814 2.81 2.81 0 00-.591.907c-.144.35-.218.734-.218 1.151 0 .425.07.811.213 1.161.142.35.339.651.586.908.247.254.544.456.875.593.336.138.696.21 1.08.21zm0 2.34c-.736 0-1.427-.129-2.076-.39a5.249 5.249 0 01-1.703-1.094 5.156 5.156 0 01-1.153-1.657 5.077 5.077 0 01-.423-2.074c0-.725.142-1.404.423-2.037a5.24 5.24 0 011.148-1.656 5.325 5.325 0 011.703-1.112 5.344 5.344 0 012.08-.407c.736 0 1.427.135 2.076.407a5.27 5.27 0 012.848 2.768c.282.635.424 1.314.424 2.037a5.115 5.115 0 01-1.577 3.73 5.309 5.309 0 01-1.7 1.094 5.445 5.445 0 01-2.07.392zm7.738-11.016c-.205 0-.397-.039-.581-.119a1.554 1.554 0 01-.804-.793 1.437 1.437 0 010-1.148c.076-.18.186-.34.326-.477a1.491 1.491 0 011.642-.321 1.51 1.51 0 01.93 1.376c0 .202-.04.391-.12.573-.08.176-.19.336-.327.471a1.51 1.51 0 01-1.066.438zm-1.262.786h2.523V35.8h-2.523V25.764zm3.684 5.018c0-.73.124-1.415.373-2.048a5.08 5.08 0 011.043-1.656c.447-.47.983-.84 1.606-1.107a5.144 5.144 0 012.047-.402c.562 0 1.077.083 1.54.247.462.163.906.427 1.332.793v-3.855h2.522V35.8h-2.522v-.842a3.976 3.976 0 01-1.333.798c-.465.161-.977.241-1.54.241a5.144 5.144 0 01-2.046-.401 4.807 4.807 0 01-1.606-1.107 5.08 5.08 0 01-1.043-1.657 5.567 5.567 0 01-.373-2.05zm5.395 2.872a3.147 3.147 0 001.284-.28c.221-.1.44-.236.652-.407a3.68 3.68 0 00.607-.627v-3.118a3.46 3.46 0 00-1.259-1.03 2.78 2.78 0 00-.66-.22 3.375 3.375 0 00-.624-.065 2.82 2.82 0 00-1.099.216 2.623 2.623 0 00-.888.604c-.252.259-.45.562-.591.912a3.01 3.01 0 00-.213 1.14c0 .413.071.794.213 1.144a2.714 2.714 0 001.48 1.516 2.82 2.82 0 001.098.215zm-21.15-5.64c-1.692 0-2.435.86-2.435 2.081V35.8h-2.523v-5.637c.014-2.351 1.39-4.661 4.961-4.661" fill="#000"/><g fill="#000"><path d="M50.726 72.09c-1.565 0-2.836-1.191-2.836-2.66 0-1.444 1.271-2.648 2.836-2.648 1.048 0 2.082.444 2.529 1.242.028.05.07.126.07.228v2.343c0 .05-.028.152-.056.177-.489.798-1.467 1.318-2.543 1.318m5.142 2.026v-9.335h-2.543v.773c-.713-.621-1.69-.963-2.878-.963-2.92 0-5.128 2.153-5.128 4.839 0 2.698 2.222 4.876 5.128 4.876 1.201 0 2.165-.367 2.878-.988v.798h2.543zm11.051 0v-5.054c0-2.482-2.137-4.471-4.848-4.471-2.724 0-4.848 1.989-4.848 4.471v5.054h2.543v-5.054c0-1.228.95-2.153 2.305-2.153 1.355 0 2.306.937 2.306 2.153v5.054h2.542zm6.47-2.026c-1.565 0-2.837-1.191-2.837-2.66 0-1.444 1.272-2.648 2.836-2.648 1.048 0 2.026.469 2.53 1.242.027.05.07.126.07.228v2.356c0 .05-.029.139-.057.164-.475.798-1.467 1.318-2.543 1.318m5.142 2.026V61.97h-2.543v3.585c-.712-.621-1.677-1.001-2.878-1.001-2.92 0-5.128 2.179-5.128 4.864 0 2.698 2.222 4.877 5.128 4.877 1.188 0 2.166-.368 2.878-.988v.81h2.543zm3.898 0v-4.99c0-1.47.852-2.255 2.487-2.255v-2.28c-3.27 0-5.03 1.583-5.03 4.535v4.99h2.543zm8.048-2.14c-1.551 0-2.808-1.14-2.808-2.546s1.257-2.534 2.808-2.534c1.565 0 2.808 1.14 2.808 2.534 0 1.406-1.243 2.546-2.808 2.546m0 2.33c2.976 0 5.379-2.178 5.379-4.876 0-2.686-2.417-4.839-5.393-4.839-2.962 0-5.38 2.153-5.38 4.839.015 2.698 2.418 4.876 5.394 4.876m7.81-10.247c.81 0 1.481-.608 1.481-1.343 0-.747-.657-1.342-1.48-1.342-.811 0-1.468.595-1.468 1.342 0 .735.657 1.343 1.467 1.343m1.271.71h-2.542v9.347h2.542v-9.348zm6.567 7.32c-1.565 0-2.836-1.19-2.836-2.66 0-1.443 1.271-2.647 2.836-2.647 1.034 0 2.026.469 2.53 1.242.027.05.069.126.069.228v2.356c0 .05-.028.126-.056.164-.489.798-1.467 1.318-2.543 1.318m5.142 2.026V61.97h-2.543v3.585c-.713-.621-1.677-.976-2.878-.976-2.92 0-5.128 2.154-5.128 4.839 0 2.698 2.222 4.89 5.128 4.89 1.187 0 2.165-.368 2.878-1.001v.81h2.543zM124.681 74.117l4.178-9.348h-2.096l-3.423 8.106h.712l-3.423-8.094h-2.165l4.177 9.336h2.04zm-6.734.114l.014-1.66h-.224c-1.495 0-2.543-.81-2.543-2.191v-4.066h2.683v-1.545h-2.697v-2.534h-1.858v8.145c0 2.42 1.732 3.85 4.415 3.85h.21zM168.321 68.202c0-1.721 1.213-3.037 2.932-3.037 1.365 0 2.123.81 2.477 1.62l-.96.456c-.253-.658-.81-1.063-1.567-1.063-.91 0-1.77.81-1.77 2.076 0 1.215.86 2.076 1.77 2.076.809 0 1.365-.405 1.668-1.063l.961.405c-.354.81-1.162 1.62-2.527 1.62-1.77-.052-2.984-1.369-2.984-3.09zm7.33-2.835l-.05.81h.05c.304-.506 1.011-.962 1.82-.962 1.466 0 2.174.962 2.174 2.38v3.493h-1.062v-3.341c0-1.164-.606-1.57-1.415-1.57-.91 0-1.517.862-1.517 1.773v3.14h-1.061v-8.306h1.061v2.583zm5.106 5.721v-5.721h1.01v.91h.051c.253-.657 1.062-1.062 1.669-1.062.353 0 .556.05.809.152l-.405 1.012a1.805 1.805 0 00-.556-.101c-.708 0-1.466.607-1.466 1.671v3.14h-1.112zm9.402-2.886c0 1.721-1.213 3.038-2.932 3.038-1.718 0-2.931-1.317-2.931-3.038 0-1.721 1.213-3.037 2.931-3.037 1.719 0 2.932 1.316 2.932 3.037zm-1.061 0c0-1.316-.91-2.076-1.87-2.076-.961 0-1.87.76-1.87 2.076 0 1.317.909 2.076 1.87 2.076.96 0 1.87-.76 1.87-2.076zm1.92-2.835h1.011v.81h.051c.304-.557 1.062-.962 1.77-.962.91 0 1.516.405 1.82 1.114a2.294 2.294 0 011.97-1.114c1.365 0 2.022.962 2.022 2.38v3.493h-1.112v-3.341c0-1.164-.455-1.57-1.264-1.57-.86 0-1.466.862-1.466 1.773v3.14h-1.061v-3.343c0-1.164-.456-1.57-1.264-1.57-.86 0-1.466.862-1.466 1.773v3.14h-1.062v-5.722h.052v-.001zm9.403 2.835c0-1.62 1.112-3.037 2.78-3.037 1.669 0 2.78 1.215 2.78 3.037v.202h-4.5c.052 1.215.91 1.874 1.82 1.874.606 0 1.264-.254 1.567-.963l.96.405c-.353.81-1.162 1.57-2.477 1.57-1.768-.05-2.93-1.367-2.93-3.088zm2.78-2.025c-.809 0-1.415.557-1.618 1.367h3.287c-.051-.506-.456-1.367-1.669-1.367zm3.387 2.025c0-1.721 1.213-3.037 2.932-3.037 1.365 0 2.123.81 2.477 1.62l-.96.405c-.253-.658-.81-1.063-1.567-1.063-.91 0-1.77.81-1.77 2.076 0 1.215.86 2.076 1.77 2.076.809 0 1.365-.405 1.668-1.063l.96.405c-.353.81-1.162 1.62-2.527 1.62-1.77 0-2.983-1.318-2.983-3.039zm6.066 1.165c0-1.266 1.163-1.974 2.477-1.974.758 0 1.315.202 1.517.354v-.203c0-.861-.708-1.367-1.466-1.367-.606 0-1.162.304-1.365.81l-.96-.405c.202-.506.86-1.367 2.325-1.367 1.365 0 2.528.81 2.528 2.43v3.443h-1.011v-.81h-.05c-.304.456-.91.962-1.871.962-1.163 0-2.124-.709-2.124-1.873zm3.994-.76s-.455-.354-1.365-.354c-1.112 0-1.567.607-1.567 1.114 0 .607.607.911 1.163.911.91 0 1.77-.709 1.77-1.67zm1.719 1.013l.96-.405c.304.71.86 1.063 1.517 1.063.657 0 1.112-.304 1.112-.81 0-.304-.151-.607-.758-.759l-1.162-.253c-.505-.152-1.517-.557-1.517-1.57 0-1.012 1.062-1.67 2.224-1.67.96 0 1.82.456 2.174 1.316l-.91.405c-.202-.557-.758-.76-1.314-.76-.606 0-1.112.254-1.112.71 0 .354.303.557.758.658l1.112.253c1.112.253 1.567.962 1.567 1.671 0 1.012-.91 1.772-2.224 1.772s-2.124-.81-2.427-1.62zm6.066-.304V66.33h-1.01v-.962h1.01v-1.722h1.061v1.722h1.365v.962h-1.365v2.886c0 .658.253.911.758.911.203 0 .354 0 .506-.1l.353.91a2.178 2.178 0 01-.86.152c-1.161.05-1.818-.608-1.818-1.772zm-61.116-4.404h-5.46c1.011.658 1.719 1.772 1.719 3.088 0 .253-.05.557-.1.81v.051c-.052.405-.203.76-.405 1.114L155.634 76h.303a7.978 7.978 0 007.987-8c0-1.114-.203-2.177-.607-3.088zm-7.33 6.683c-1.01 0-1.971-.456-2.628-1.115a5.08 5.08 0 01-.657-.81l-.101-.1-3.388-5.823A8.044 8.044 0 00148 68c0 4.101 3.033 7.443 6.976 7.898l2.73-4.76a3.356 3.356 0 01-1.719.457zm0-11.595a7.967 7.967 0 00-6.42 3.24l2.73 4.658c.051.051.051.152.051.202v-.152c0-1.772 1.314-3.291 2.983-3.544h.05c.304-.101.607-.101.91-.101h6.724c-1.316-2.53-3.995-4.303-7.028-4.303zm2.881 8a2.883 2.883 0 11-5.763 0c0-1.57 1.315-2.886 2.882-2.886 1.567-.051 2.881 1.266 2.881 2.886z"/><g><path d="M271.108 65.4c2.461 0 2.4 2.154 2.338 3.077h-5.17c.124-1.6.924-3.077 2.832-3.077zm3.938 4.492c.308 0 .37-1.046.37-1.477.122-3.138-1.54-4.615-4.185-4.615-1.477 0-2.831.554-3.693 1.538-.8.924-1.23 2.277-1.23 4.062 0 1.785.43 3.077 1.169 4 .8.923 1.97 1.6 4.061 1.6.8 0 2.339-.185 3.262-.615.37-.123.37-.308.37-.616v-.554c0-.307-.124-.43-.493-.307-1.108.369-2.215.554-2.892.554-1.17 0-2.154-.308-2.708-.985-.554-.739-.739-1.539-.8-2.462 2.215-.123 4.492-.123 6.77-.123zM250.062 64.17v-2.093c0-1.662 1.661-1.415 2.707-1.292.431.061.616 0 .616-.37v-.677c0-.307-.123-.492-.616-.553-2.584-.493-4.8 0-4.8 3.323v1.723l-1.538.123c-.308.061-.431.123-.431.492v.554c0 .246.123.37.43.37h1.54v8.553c0 .308.122.43.43.43h1.23c.308 0 .432-.122.432-.43V65.77h2.83c.308 0 .431-.123.431-.43v-.8c0-.308-.123-.431-.43-.431h-2.831v.061zM256.708 64.17h-1.231c-.308 0-.43.122-.43.43v9.723c0 .308.122.43.43.43h1.23c.308 0 .431-.122.431-.43v-9.785c0-.184-.123-.369-.43-.369zm-.616-4.432c-.738 0-1.292.493-1.292 1.293 0 .8.492 1.292 1.292 1.292s1.293-.492 1.293-1.292c0-.862-.554-1.293-1.293-1.293zM261.815 65.708l-.123-1.17c-.061-.307-.246-.307-.492-.307h-.923c-.308 0-.43.123-.43.43v9.724c0 .307.122.43.43.43h1.23c.308 0 .431-.123.431-.43V67c.8-.615 1.477-.985 3.077-.985.37 0 .923.123.923-.246v-1.23c0-.247-.184-.431-.676-.431-1.354-.062-2.216.246-3.447 1.6z"/></g></g><g><g fill="#000"><path d="M96.6 118.752c-3.452 2.547-8.464 3.906-12.776 3.906-6.042 0-11.484-2.234-15.6-5.95-.323-.293-.034-.69.352-.464 4.444 2.586 9.94 4.14 15.61 4.14 3.828 0 8.038-.792 11.91-2.434.581-.254 1.07.376.503.802z"/><path d="M98.036 117.109c-.44-.567-2.918-.269-4.033-.137-.337.04-.391-.254-.088-.47 1.975-1.388 5.217-.987 5.593-.522.381.469-.098 3.715-1.95 5.265-.284.24-.558.112-.43-.205.415-1.032 1.348-3.364.908-3.931zM83.947 106.1c1.945 0 1.926 1.7 1.882 2.434h-4.112c.074-1.276.69-2.435 2.23-2.435zm3.114 3.563c.244 0 .279-.816.293-1.159.093-2.473-1.212-3.676-3.339-3.676-1.173 0-2.254.425-2.928 1.242-.626.748-.988 1.804-.988 3.226 0 1.404.318 2.45.929 3.188.626.748 1.58 1.266 3.236 1.266.626 0 1.848-.132 2.611-.513.284-.103.284-.23.284-.499v-.46c0-.249-.108-.351-.377-.263-.88.298-1.765.415-2.298.415-.919 0-1.72-.269-2.165-.792-.435-.567-.582-1.207-.621-1.98 1.78.005 3.583.005 5.363.005zM67.212 105.082v-1.638c0-1.31 1.315-1.144 2.146-1.036.372.073.514.01.514-.279v-.542c0-.27-.108-.367-.48-.465-2.058-.381-3.842.03-3.842 2.64v1.364l-1.203.142c-.254.02-.347.098-.347.357v.43c0 .235.103.328.328.328h1.227v6.785c0 .235.093.328.327.328h1.002c.235 0 .328-.093.328-.328v-6.785h2.224c.235 0 .328-.093.328-.328v-.645c0-.235-.108-.328-.328-.328h-2.224zM72.497 105.092h-.983c-.234 0-.327.093-.327.328v7.748c0 .235.093.328.327.328h.983c.235 0 .327-.093.327-.328v-7.748c.005-.186-.092-.328-.327-.328zm-.494-3.5c-.577 0-1.022.39-1.022 1.007 0 .625.406 1.007 1.037 1.007.63 0 1.036-.391 1.036-1.007 0-.68-.43-1.007-1.05-1.007zM100.794 113.496h-1.051c-.235 0-.367-.093-.46-.328l-3.046-7.69c-.093-.234-.034-.386.215-.386h1.125c.225 0 .318.142.391.328l2.303 6.556 2.293-6.556c.102-.235.205-.328.44-.328h1.007c.278 0 .347.147.24.381l-3.051 7.695c-.084.186-.181.328-.406.328zM91.158 111.34c0 1.956 1.35 2.278 2.322 2.278.523 0 .948-.054 1.369-.142.513-.151.508-.234.508-.469v-.596c0-.235-.112-.308-.332-.255-.396.064-.655.108-1.046.128-1.08-.074-1.183-.42-1.183-1.477v-4.42h2.175c.235 0 .328-.092.328-.327v-.66c0-.235-.108-.328-.328-.328h-2.175v-2.019c0-.185-.093-.327-.328-.327h-.66c-.254 0-.386.093-.406.347l-.21 2.039-1.227.151c-.254.025-.347.152-.347.406v.381c0 .235.142.328.327.328h1.213v4.962zM76.56 106.304l-.123-.948c-.053-.235-.185-.264-.381-.264h-.733c-.235 0-.328.093-.328.328v7.748c0 .235.093.328.328.328h.982c.235 0 .328-.093.328-.328v-5.866c.64-.47 1.193-.787 2.45-.787.307.005.742.122.742-.206v-.968c0-.215-.127-.332-.542-.332-1.037 0-1.736.259-2.723 1.295z"/></g><g fill="#000"><path d="M133 101a9 9 0 100 18 9 9 0 000-18zm2.19 12.166v.691h-1.863v.006h-.69v-7.74h.69v7.043h1.864zm-2.19 4.368a7.534 7.534 0 11.329-15.06l-.002.685a6.848 6.848 0 106.514 7.149l.002-.02H135.2v-.69h5.32a7.532 7.532 0 01-7.521 7.936zm-1.751-10.386a1.058 1.058 0 11-2.117 0 1.058 1.058 0 012.117 0zM146.5 114.277h6.295v-1.866h-3.984v-6.685H146.5v8.55zm13.9-7.949c-.72-.55-1.65-.828-2.76-.828-1.317 0-2.416.397-3.182 1.147-.799.784-1.222 1.94-1.222 3.341 0 1.497.447 2.761 1.258 3.557.637.625 1.485.955 2.457.955 2.133 0 2.623-1.256 2.623-1.256v1.03h1.926v-4.827h-3.833v1.511h1.764s.018 1.903-1.803 1.903c-.463 0-.874-.166-1.191-.477-.494-.485-.756-1.3-.756-2.359 0-1.754.71-2.8 1.899-2.8.741 0 1.3.448 1.444 1.126h2.45c-.125-.985-.4-1.5-1.074-2.023z"/></g><path d="M253.948 107.832a2.458 2.458 0 00-.79-.045c-.133.016-.26.043-.385.091a.95.95 0 00-.266.15.576.576 0 00-.226.372c-.016.13.027.25.108.352.096.118.234.2.368.258.126.055.258.096.39.13.155.042.311.076.468.11.355.08.707.162 1.048.296.604.238 1.179.641 1.415 1.301.101.285.126.588.085.886-.05.36-.195.702-.417.991a2.21 2.21 0 01-.623.55 3.11 3.11 0 01-1.074.383 4.12 4.12 0 01-.882.057 4.624 4.624 0 01-2.818-1.096l.863-1.154c.32.246.653.446 1.033.586.248.092.5.153.762.186.236.028.484.034.721.006.171-.023.342-.063.498-.14a.907.907 0 00.311-.245.562.562 0 00.045-.654.847.847 0 00-.305-.289 2.098 2.098 0 00-.5-.203c-.21-.062-.42-.104-.634-.151-.606-.13-1.31-.291-1.815-.729a1.72 1.72 0 01-.516-.776 1.797 1.797 0 01-.01-1.02 2.03 2.03 0 01.38-.739 2.29 2.29 0 01.914-.668c.269-.112.543-.18.83-.22a3.91 3.91 0 011.111.015c.659.1 1.273.352 1.813.74-.27.371-.538.742-.809 1.112a3.446 3.446 0 00-1.093-.443zm-13.298-4.81h-1.618v10.494h1.618v-10.493zm8.361 10.494v-6.796h-1.618c0 .436 0 2.775-.002 3.21-.002.188-.002.375-.014.563-.008.12-.02.24-.042.36a1.79 1.79 0 01-.24.633c-.301.473-.827.703-1.364.709-.545.006-1.063-.218-1.356-.707a1.945 1.945 0 01-.23-.639 5.794 5.794 0 01-.079-.918 28.843 28.843 0 01-.006-.595c-.002-.338-.002-.674-.002-1.012v-1.606h-1.617c0 .554 0 2.2.002 2.755.002.264.004.531.012.796.006.193.014.387.032.58.041.458.126.906.334 1.328.428.863 1.26 1.362 2.186 1.472.456.052.923.014 1.362-.116.423-.125.87-.349 1.183-.672l.045.655h1.414zm-19.46-.875l-1.11-1.147a2.198 2.198 0 01-1.018.534 2.199 2.199 0 01-1.148-.047 1.795 1.795 0 01-.923-.676 2.083 2.083 0 01-.363-1.091c-.02-.383.052-.784.231-1.128.19-.36.47-.611.842-.772a2.246 2.246 0 011.138-.157c.392.047.75.19 1.081.401l.976-1.24a3.644 3.644 0 00-1.91-.777 3.84 3.84 0 00-2.04.332 3.247 3.247 0 00-1.487 1.42 3.935 3.935 0 00-.435 2.025 3.75 3.75 0 00.644 1.964c.409.585.982.998 1.65 1.228a3.925 3.925 0 002.063.12 3.483 3.483 0 001.81-.99zm7.573.875v-6.796h-1.618c0 .436 0 2.775-.002 3.21-.002.188-.002.375-.014.563-.008.12-.02.24-.043.36a1.79 1.79 0 01-.24.633c-.3.473-.827.703-1.363.709-.545.006-1.063-.218-1.356-.707a1.945 1.945 0 01-.23-.639 5.794 5.794 0 01-.079-.918 28.842 28.842 0 01-.006-.595c-.002-.338-.002-.674-.002-1.012v-1.606h-1.618c0 .554 0 2.2.002 2.755.002.264.004.531.012.796.007.193.015.387.033.58.04.458.126.906.333 1.328.43.863 1.26 1.362 2.187 1.472.455.052.923.014 1.362-.116.423-.125.87-.349 1.183-.672l.044.655h1.415zm-14.938-3.386c-.004.937-.343 1.857-1.012 2.531a3.508 3.508 0 01-2.518 1.02 3.521 3.521 0 01-2.512-1.038c-.663-.68-.998-1.603-.994-2.54.004-.936.343-1.856 1.012-2.53a3.508 3.508 0 012.518-1.02c.937.004 1.85.36 2.512 1.038.663.678.998 1.603.994 2.54zm-1.59-.006a2.123 2.123 0 00-.144-.796 1.882 1.882 0 00-.396-.623 1.774 1.774 0 00-.608-.407 1.978 1.978 0 00-.772-.15 2.18 2.18 0 00-.398.036 1.973 1.973 0 00-.705.283 1.797 1.797 0 00-.681.85 2.152 2.152 0 00-.148.794 2.123 2.123 0 00.144.796 1.782 1.782 0 001.004 1.03 1.978 1.978 0 00.772.152c.134 0 .268-.012.398-.037a1.973 1.973 0 00.705-.283 1.797 1.797 0 00.681-.85c.05-.125.086-.253.11-.384.024-.136.039-.274.039-.41zM208.448 110a7.943 7.943 0 01-6.12 7.733c-.664.16-1.328.232-2.01.254-.503.017-1.007.013-1.511.013h-7.164c-.504 0-1.009.004-1.51-.013a9.945 9.945 0 01-2.008-.252 7.963 7.963 0 01-3.157-1.545 7.938 7.938 0 01-.004-12.377 7.963 7.963 0 013.156-1.546 9.842 9.842 0 012.01-.254c.504-.017 1.009-.013 1.513-.013h7.164c.504 0 1.008-.004 1.51.013.68.022 1.345.093 2.008.252a7.963 7.963 0 013.156 1.545 7.938 7.938 0 012.967 6.19zm-5.327.002c0-.863-.424-1.663-1.132-2.152a2.82 2.82 0 00-1.166-.46c-.42-.07-.84-.055-1.26-.055h-8.674c-.421 0-.84-.014-1.26.055-.421.069-.811.216-1.165.458a2.613 2.613 0 00-.002 4.304c.354.244.744.391 1.166.46.421.07.84.055 1.26.055h8.675c.42 0 .84.014 1.26-.055.42-.069.81-.216 1.164-.458a2.625 2.625 0 001.134-2.152z" fill="#1C1E20"/></g><g fill="#000"><path d="M52.767 144.16c3.563 0 6.464 2.856 6.464 6.42S56.332 157 52.767 157a6.416 6.416 0 01-6.443-6.42c0-3.564 2.878-6.42 6.443-6.42zm11.48.246v4.854l4.84-4.84h8.595v6.75c0 1.958.475 2.57 1.508 2.57 1.018 0 1.678-.52 2.15-1.344v-7.975h4.2v12.317h-.897l-1.888-1.629c-.78.897-2.384 1.889-4.13 1.889-3.68 0-5.143-2.243-5.143-4.674v-7.32l-5.317 5.316 6.419 6.42h-5.285l-5.052-5.004v5.006h-4.2v-12.336h4.2zM40.023 141c3.468 0 6.299 2.359 6.299 5.262 0 1.769-1.085 3.35-2.738 4.317l4.445 6.174h-4.767l-3.784-5.252h-1.272v5.24h-4.2V141h6.017zm12.742 6.206c-1.11 0-2.054 1.507-2.054 3.373 0 1.866.945 3.376 2.054 3.376 1.134 0 2.076-1.51 2.076-3.376 0-1.866-.94-3.373-2.076-3.373zm-13.26-3.587h-1.299v5.261h1.3c1.438 0 2.618-1.179 2.618-2.618 0-1.464-1.178-2.643-2.619-2.643zM150.73 150.58s-.793-.49-1.283-.678c0 0-1.518-.702-1.82-1.04 0 0-.592-.556-.247-1.203 0 0 .145-.424.769-.424 0 0 .816.043.816.714v.945h2.917l-.004-1.388s.224-2.275-3.435-2.377c0 0-2.878-.188-3.702 1.361 0 0-.325.345-.325 1.55v.87s-.032 1.004.478 1.65c0 0 .29.424 1.004.891 0 0 1.451.78 2.322 1.227 0 0 .878.502.764 1.298 0 0-.07.82-.921.785 0 0-.777-.036-.777-.84v-.94h-3.106v1.368s-.086 2.62 3.906 2.62c0 0 3.816.078 3.992-2.687v-1.113s.138-1.694-1.349-2.589zm-14.93-5.129l-.976 6.122h-.228l-.933-6.067h-4.87l-.244 11.082h2.886l.036-8.349h.227l1.53 8.35h3.035l1.502-8.346h.2l.07 8.345h2.898l-.313-11.137h-4.82zm-17.169.047l-1.917 11.078h3.106l1.137-8.588h.255l1.137 8.588h3.102l-1.922-11.078h-4.898zm65.153 4.93v1.635h.796v1.753c0 .859-.733.874-.733.874-.89 0-.859-.815-.859-.815v-6.067c0-.624.792-.659.792-.659.761 0 .765.745.765.745v.922h2.926c.094-1.8-.263-2.236-.263-2.236-.726-1.627-3.47-1.54-3.47-1.54-4.216 0-3.75 3.235-3.75 3.235v5.866c.09 3.035 4.243 2.726 4.314 2.722 1.847-.204 2.404-.792 2.404-.792.514-.38.647-.91.647-.91.145-.306.184-1.29.184-1.29v-3.447l-3.753.003zm-9.69 1.803h-.125L171 145.455h-3.549v11.133h2.89l-.172-6.776h.129l3.075 6.776h3.443v-11.137h-2.926l.204 6.78zm-13.694 1.585s.043.913-.804.913c0 0-.89.047-.89-.89l-.008-8.376h-3.169v8.31s-.325 3.145 4.114 3.145c0 0 3.859.047 3.859-3v-8.455h-3.098l-.004 8.353zm-47.812-3.236s-.792-.49-1.282-.678c0 0-1.518-.702-1.82-1.04 0 0-.592-.556-.243-1.203 0 0 .145-.424.769-.424 0 0 .815.043.815.714v.945h2.918l-.004-1.388s.224-2.275-3.435-2.377c0 0-.275-.02-.679.004 0 0-2.215.118-3.007 1.334-.004.008-.012.015-.016.023 0 0-.322.345-.322 1.55v.87s-.035 1.004.479 1.65c0 0 .29.424 1.004.891 0 0 1.45.78 2.321 1.227 0 0 .879.502.765 1.298 0 0-.07.82-.918.785 0 0-.776-.036-.776-.84v-.945h-3.118v1.373s-.086 2.62 3.906 2.62c0 0 3.816.078 3.996-2.687v-1.113s.134-1.694-1.353-2.589zM259.322 155.952l-3.04-4.294-3.036 4.294h-1.252l3.654-5.19-3.339-4.714h1.252l2.722 3.846 2.72-3.846h1.25l-3.336 4.715 3.654 5.19h-1.249zm-23.693-.003l-3.658-5.186 3.339-4.715h-1.252l-2.722 3.846-2.717-3.846h-1.25l3.337 4.715-3.658 5.186h1.252l3.036-4.294 3.04 4.294h1.253z"/><path d="M242.373 151.26c-.19-.16-.4-.295-.628-.401a2.18 2.18 0 001.15-1.922c0-.613-.225-2.612-3.108-2.612h-3.882v4.138h-1.293c-.166.219-.547.746-.694.964h1.987v4.495h3.882c2.102 0 3.408-1.073 3.408-2.802.003-.755-.282-1.394-.822-1.86m-5.393-3.932h2.81c.759 0 2.032.19 2.032 1.526 0 1.009-.742 1.61-2.032 1.61h-2.81v-3.136zm2.807 7.595h-2.81v-3.492h2.81c1.066 0 2.34.295 2.34 1.67 0 1.584-1.466 1.822-2.34 1.822m8.461-8.816c-2.685 0-4.563 2.062-4.563 5.015 0 2.956 1.875 5.015 4.563 5.015 2.682 0 4.554-2.06 4.554-5.015 0-2.953-1.872-5.015-4.554-5.015m0 9.015c-2.045 0-3.479-1.645-3.479-4s1.434-4 3.479-4c2.042 0 3.469 1.645 3.469 4s-1.427 4-3.469 4m-37.87-9.822l-.007.007A7.99 7.99 0 00208 151a7.974 7.974 0 001.629 4.845c.01.013.029.022.041.013.013-.01.016-.026.01-.042-.608-1.886 2.496-6.458 4.103-8.373.006-.006.012-.012.012-.022 0-.01-.006-.02-.016-.026-2.7-2.695-3.42-2.079-3.41-2.088m11.19-.007l.006.007a7.981 7.981 0 012.368 5.693 7.974 7.974 0 01-1.628 4.845c-.01.013-.03.022-.042.013-.013-.01-.013-.026-.01-.042.608-1.886-2.496-6.461-4.099-8.376-.006-.006-.013-.013-.013-.022 0-.013.007-.02.016-.026 2.701-2.696 3.418-2.076 3.408-2.085M215.968 143c1.607 0 2.932.443 4.15 1.17.017.006.02.025.014.038-.007.013-.023.016-.039.013-1.542-.334-3.888 1.002-4.109 1.137-.006.003-.01.007-.016.007a.024.024 0 01-.016-.007c-.588-.34-2.755-1.48-4.121-1.127-.016.003-.032 0-.039-.013-.006-.016 0-.032.013-.039 1.22-.736 2.56-1.179 4.163-1.179m0 6.416c.01 0 .02.006.026.013 2.384 1.822 6.464 6.32 5.22 7.592l.003-.003v.003h-.004a7.924 7.924 0 01-5.248 1.979 7.91 7.91 0 01-5.245-1.98l-.003-.002.003.003c-1.245-1.272 2.835-5.774 5.22-7.592a.048.048 0 01.028-.013m63.017-3.087v7.874l-5.78-7.88-.946-.004v9.59h1.062v-7.701l5.664 7.708 1.066.003v-9.59h-1.066zm-12.247-.225c-2.685 0-4.563 2.062-4.563 5.015 0 2.956 1.878 5.018 4.563 5.018 2.682 0 4.554-2.062 4.554-5.018 0-2.95-1.872-5.015-4.554-5.015m0 9.018c-2.045 0-3.478-1.645-3.478-4.003 0-2.355 1.433-4 3.478-4 2.042 0 3.47 1.645 3.47 4-.004 2.355-1.428 4.003-3.47 4.003m15.579-.145v-3.546h5.257v-.939h-5.257v-3.232h5.616v-.938h-6.685v9.594H288v-.939h-5.683z"/></g></g></svg>