<?xml version="1.0" encoding="UTF-8" standalone="no"?>
<svg width="50px" height="50px" viewBox="0 0 50 50" version="1.1" xmlns="http://www.w3.org/2000/svg" xmlns:xlink="http://www.w3.org/1999/xlink">
    <!-- Generator: Sketch 3.6.1 (26313) - http://www.bohemiancoding.com/sketch -->
    <title>play copy 2 + Env</title>
    <desc>Created with Sketch.</desc>
    <defs></defs>
    <g id="Page-1" stroke="none" stroke-width="1" fill="none" fill-rule="evenodd">
        <g id="sports_event_mobile" transform="translate(-31.000000, -2772.000000)">
            <g id="email_2.2" transform="translate(10.000000, 2709.000000)">
                <g id="play-copy-2-+-Env" transform="translate(10.000000, 63.000000)">
                    <g id="play-copy-2" transform="translate(36.000000, 25.000000) scale(-1, -1) translate(-36.000000, -25.000000) translate(11.000000, 0.000000)" fill="#FFFFFF">
                        <path d="M25,50 C38.8071187,50 50,38.8071187 50,25 C50,11.1928813 38.8071187,0 25,0 C11.1928813,0 0,11.1928813 0,25 C0,38.8071187 11.1928813,50 25,50 Z" id="Oval-1"></path>
                    </g>
                    <g id="Env" transform="translate(0.000000, 9.000000)" stroke="#1B1B1F" stroke-width="2.5">
                        <rect id="Rectangle-695" x="22" y="7" width="29" height="19" rx="1"></rect>
                        <path d="M48,9 L37.1509939,17.4668007 C36.2391751,18.1784039 34.7591052,18.1770619 33.8490061,17.4668007 L33.8490061,17.4668007 L23,9" id="Triangle-1"></path>
                        <path d="M24,24 L32.5,17.5" id="Line" stroke-linecap="square"></path>
                        <path d="M38.8081055,23.5 L46.5,17.4624023" id="Line" stroke-linecap="square" transform="translate(42.654053, 20.481201) scale(1, -1) translate(-42.654053, -20.481201) "></path>
                    </g>
                </g>
            </g>
        </g>
    </g>
</svg>