<?xml version="1.0" encoding="UTF-8" standalone="no"?>
<svg width="25px" height="25px" viewBox="0 0 25 25" version="1.1" xmlns="http://www.w3.org/2000/svg" xmlns:xlink="http://www.w3.org/1999/xlink">
    <!-- Generator: Sketch 3.8.3 (29802) - http://www.bohemiancoding.com/sketch -->
    <title>32</title>
    <desc>Created with Sketch.</desc>
    <defs></defs>
    <g id="Page-1" stroke="none" stroke-width="1" fill="none" fill-rule="evenodd">
        <g id="32">
            <path d="M12.5,25 C19.4035594,25 25,19.4035594 25,12.5 C25,5.59644063 19.4035594,0 12.5,0 C5.59644063,0 0,5.59644063 0,12.5 C0,19.4035594 5.59644063,25 12.5,25 Z" id="Oval-1" fill="#FFFFFF" opacity="0.8"></path>
            <path d="M10.0048933,6.51883657 C12.4838091,5.55419037 14.7609054,5.93782629 16.7847922,7.64345303 C18.0755587,8.73120749 18.7868328,10.1713736 18.9613853,11.8433908 C19.1492731,13.642311 18.6503892,15.273238 17.4891818,16.6549669 C16.130871,18.2712575 14.3592721,19.0678021 12.243664,18.9929397 C10.3961185,18.9275639 8.84612532,18.1770968 7.61211543,16.7909227 C7.37977636,16.5299071 7.38091475,16.4340659 7.63477472,16.1782544 C7.94658393,15.8641142 8.25920627,15.550733 8.57378014,15.2393032 C8.81983403,14.9956887 8.94137024,15.0004591 9.17105306,15.2717201 C10.1097874,16.3803992 11.3095916,16.8905043 12.7544738,16.8388433 C14.8615712,16.7635472 16.6999011,14.9150802 16.8264246,12.8077118 C16.9541406,10.6799066 15.5387479,8.71326436 13.3517467,8.25487446 C12.0143606,7.97456059 10.4197535,8.42362656 9.55701996,9.34886294 C9.86725712,9.65844959 10.1789037,9.96874095 10.4896287,10.2799539 C10.572514,10.3630018 10.6552909,10.4464292 10.7331348,10.5341391 C10.8794445,10.6989339 10.9076873,10.8874181 10.8210615,11.0880449 C10.7306954,11.297291 10.5702373,11.4182852 10.3382235,11.4187188 C9.08258425,11.421104 7.82689082,11.4250071 6.57125161,11.4177973 C6.22545346,11.4157916 6.00829287,11.2030219 6.00574506,10.8559227 C5.99652956,9.60033772 6.00081205,8.34464429 6.00227569,7.08900508 C6.00260094,6.84642055 6.12343243,6.68444455 6.34796542,6.58925384 C6.57173949,6.49438838 6.7602236,6.55965582 6.91737501,6.71523517 C7.27650854,7.07089933 7.62599289,7.43632108 8.00149748,7.82033645 C8.6195866,7.25011373 9.26673166,6.80608917 10.0048933,6.51883657 Z" id="Fill-1" fill="#000000"></path>
        </g>
    </g>
</svg>