<?xml version="1.0" encoding="UTF-8" standalone="no"?>
<svg width="33px" height="33px" viewBox="0 0 33 33" version="1.1" xmlns="http://www.w3.org/2000/svg" xmlns:xlink="http://www.w3.org/1999/xlink" xmlns:sketch="http://www.bohemiancoding.com/sketch/ns">
    <!-- Generator: Sketch 3.5 (25232) - http://www.bohemiancoding.com/sketch -->
    <title>logo copy</title>
    <desc>Created with Sketch.</desc>
    <defs></defs>
    <g id="Page-1" stroke="none" stroke-width="1" fill="none" fill-rule="evenodd" sketch:type="MSPage">
        <g id="episodeDetail-switcher-Copy" sketch:type="MSArtboardGroup" transform="translate(-129.000000, -595.000000)" fill="#FFFFFF">
            <g id="Rectangle-114-+-WATCH-THIS-EPISODE-+-logo-copy-2" sketch:type="MSLayerGroup" transform="translate(122.000000, 586.000000)">
                <g id="logo-copy" transform="translate(7.000000, 9.000000)" sketch:type="MSShapeGroup">
                    <path d="M23.2153141,16.7291995 C23.2153141,10.2251872 25.5300277,6.14673348 28.395452,5.70589743 C25.5300277,2.28869779 20.7906505,0.414424296 16.4920339,0.414424296 C11.7531369,0.414424296 7.45452034,2.3986667 4.47866583,5.70589743 C7.34409011,6.25670238 8.22609152,8.68226103 8.22609152,12.3198787 L4.80947638,12.3198787 C4.80947638,10.1152183 4.36823561,9.01264796 3.04595369,9.01264796 C2.49476283,9.01264796 2.05400219,9.3435151 1.83362187,9.78435114 C1.83362187,9.89480026 1.72319165,10.0047692 1.72319165,10.0047692 C1.61324155,10.3356363 1.50281133,10.6665034 1.50281133,10.9968904 C1.50281133,15.4062112 8.88723248,15.1857932 8.88723248,22.1306416 C8.88723248,24.776138 6.79337938,27.3116656 4.47866583,27.3116656 C7.56495056,30.6188963 11.6427067,32.6031387 16.4920339,32.6031387 C21.121461,32.6031387 25.3096474,30.6188963 28.2855019,27.4221147 C25.5300277,26.7603804 23.2153141,22.9023448 23.2153141,16.7291995 L23.2153141,16.7291995 Z M21.6721718,27.3116656 L17.9252262,27.3116656 L17.9252262,18.1621568 L13.9574202,18.1621568 L13.9574202,27.3116656 L10.3199446,27.3116656 L10.3199446,6.14673348 L13.9574202,6.14673348 L13.9574202,14.7449571 L17.9252262,14.7449571 L17.9252262,6.14673348 L21.6721718,6.14673348 L21.6721718,27.3116656 L21.6721718,27.3116656 Z" id="Fill-1"></path>
                    <path d="M3.59714456,24.0044349 C4.58909606,24.0044349 5.36066724,23.0127939 5.36066724,21.6898055 C5.36066724,19.0443091 2.93552347,18.4930239 0.400909731,16.1779144 L0.400909731,17.0605469 C0.492614831,21.2091118 1.94789315,24.0044349 3.59714456,24.0044349" id="Fill-2"></path>
                    <path d="M26.8527897,16.3983324 C26.8527897,12.7607147 27.8447412,9.23306598 29.718214,9.23306598 C32.0329276,9.23306598 32.5836383,14.7449571 32.5836383,16.5087815 C32.5836383,20.2568483 31.3713065,23.7844971 29.718214,23.7844971 C27.8447412,23.7844971 26.8527897,20.1463992 26.8527897,16.3983324" id="Fill-3"></path>
                </g>
            </g>
        </g>
    </g>
</svg>