<?xml version="1.0" encoding="utf-8"?>
<!-- Generator: Adobe Illustrator 19.1.0, SVG Export Plug-In . SVG Version: 6.00 Build 0)  -->
<svg version="1.1" id="Layer_1" xmlns="http://www.w3.org/2000/svg" xmlns:xlink="http://www.w3.org/1999/xlink" x="0px" y="0px"
	 viewBox="0 0 21 21" style="enable-background:new 0 0 21 21;" xml:space="preserve">
<style type="text/css">
	.st0{fill:#FFFFFF;}
</style>
<path class="st0" d="M20.7,10.3c0,5.5-4.5,10-10,10s-10-4.5-10-10c0-5.5,4.5-10,10-10S20.7,4.8,20.7,10.3z M18.2,6.7
	c-0.5,0.2-1.1,0.4-1.6,0.4c0.6-0.3,1-0.9,1.2-1.6c-0.6,0.3-1.1,0.6-1.8,0.7c-0.5-0.6-1.2-0.9-2.1-0.9c-1.6,0-2.8,1.3-2.8,2.8
	c0,0.2,0,0.4,0.1,0.6c-2.4-0.1-4.5-1.3-5.9-3C5,6.3,4.9,6.8,4.9,7.3c0,1,0.5,1.9,1.3,2.4c-0.5,0-0.9-0.1-1.3-0.3v0
	c0,1.4,1,2.5,2.3,2.8c-0.2,0.1-0.5,0.1-0.7,0.1c-0.2,0-0.4,0-0.5,0c0.3,1.1,1.4,1.9,2.6,1.9c-1,0.8-2.2,1.3-3.5,1.3
	c-0.2,0-0.5,0-0.7,0c1.3,0.8,2.8,1.3,4.4,1.3c5.2,0,8.1-4.3,8.1-8.1c0-0.1,0-0.3,0-0.4C17.3,7.7,17.8,7.2,18.2,6.7z"/>
</svg>
