<?xml version="1.0" encoding="utf-8"?>
<!-- Generator: Adobe Illustrator 19.1.0, SVG Export Plug-In . SVG Version: 6.00 Build 0)  -->
<svg version="1.1" id="Layer_1" xmlns="http://www.w3.org/2000/svg" xmlns:xlink="http://www.w3.org/1999/xlink" x="0px" y="0px"
	 viewBox="0 0 21 21" style="enable-background:new 0 0 21 21;" xml:space="preserve">
<style type="text/css">
	.st0{fill:#FFFFFF;}
</style>
<path class="st0" d="M4.7,15.5c-0.9,0-1.8,0.2-2.6,0.5c-1-1.6-1.6-3.5-1.6-5.5c0-0.2,0-0.3,0-0.5c0.5,1.7,2,2.9,4.2,2.9
	c0.2,0,0.3,0,0.5,0c-0.2,0.3-0.3,0.7-0.3,1.1c0,0.6,0.3,1.1,0.8,1.6C5.4,15.5,5.1,15.5,4.7,15.5z M10.5,0.5c-4,0-7.4,2.3-9,5.7
	c0.9-1,2.4-1.6,3.8-1.6c1.4,0,5.7,0,5.7,0L9.7,5.5H7.9C9.1,6,9.7,7.4,9.7,8.8c0,1.2-0.6,2.2-1.6,3c-0.9,0.7-1.1,1-1.1,1.6
	c0,0.5,1,1.4,1.5,1.8c1.5,1.1,2,2,2,3.7c0,0.6-0.2,1.1-0.4,1.6c0.1,0,0.3,0,0.4,0c5.5,0,10-4.5,10-10C20.5,5,16,0.5,10.5,0.5z
	 M2.4,8.7C2.1,6.8,3.1,5.3,4.6,5.4c1.5,0,2.9,1.6,3.1,3.5C8,10.8,7,12.4,5.5,12.3C4,12.3,2.7,10.7,2.4,8.7z M9.1,19.1
	c0,0.5-0.1,0.9-0.3,1.3c-2.5-0.4-4.6-1.7-6.1-3.6c0.7-0.4,1.7-0.7,2.6-0.7c0.5,0,1,0.1,1.4,0.2c1.2,0.8,2,1.3,2.3,2.2
	C9,18.7,9.1,18.9,9.1,19.1z M15.5,8v2.5h-1.3V8h-2.5V6.8h2.5V4.3h1.3v2.5H18V8H15.5z"/>
</svg>
