<?xml version="1.0" encoding="UTF-8"?>
<svg width="161px" height="110px" viewBox="0 0 161 110" version="1.1" xmlns="http://www.w3.org/2000/svg" xmlns:xlink="http://www.w3.org/1999/xlink">
    <!-- Generator: Sketch 50.2 (55047) - http://www.bohemiancoding.com/sketch -->
    <title>Group 7</title>
    <desc>Created with Sketch.</desc>
    <defs>
        <polygon id="path-1" points="0 109.713365 160.736442 109.713365 160.736442 0 0 0"></polygon>
    </defs>
    <g id="----PPV-Page---New-Hero-v8" stroke="none" stroke-width="1" fill="none" fill-rule="evenodd">
        <g id="DirectPrioritized_closed" transform="translate(-231.000000, -857.000000)">
            <g id="Group-11" transform="translate(151.000000, 857.000000)">
                <g id="Group-7" transform="translate(80.000000, 0.000000)">
                    <path d="M53.7806923,105.486245 L106.955644,105.486245 C107.916558,105.486245 108.695548,106.265236 108.695548,107.22562 L108.695548,107.973409 C108.695548,108.934851 107.916558,109.713313 106.955644,109.713313 L53.7806923,109.713313 C52.8197788,109.713313 52.0407885,108.934851 52.0407885,107.973409 L52.0407885,107.22562 C52.0407885,106.265236 52.8197788,105.486245 53.7806923,105.486245" id="Fill-1" fill="#7D7D7D"></path>
                    <mask id="mask-2" fill="white">
                        <use xlink:href="#path-1"></use>
                    </mask>
                    <g id="Clip-4"></g>
                    <polygon id="Fill-3" fill="#7D7D7D" mask="url(#mask-2)" points="68.0387019 106.542933 92.6977404 106.542933 92.6977404 82.7892788 68.0387019 82.7892788"></polygon>
                    <path d="M157.546125,97.011274 L3.19021154,97.011274 C1.42809615,97.011274 0.000211538462,95.7647837 0.000211538462,94.2258413 L0.000211538462,2.78516827 C0.000211538462,1.24675481 1.42809615,-0.000264423077 3.19021154,-0.000264423077 L157.546125,-0.000264423077 C159.30824,-0.000264423077 160.736654,1.24675481 160.736654,2.78516827 L160.736654,94.2258413 C160.736654,95.7647837 159.30824,97.011274 157.546125,97.011274" id="Fill-5" fill="#7D7D7D" mask="url(#mask-2)"></path>
                    <polygon id="Fill-6" fill="#010202" mask="url(#mask-2)" points="3.97903846 93.479375 156.757933 93.479375 156.757933 3.53216346 3.97903846 3.53216346"></polygon>
                </g>
            </g>
        </g>
    </g>
</svg>