<?xml version="1.0" encoding="utf-8"?>
<!-- Generator: Adobe Illustrator 20.1.0, SVG Export Plug-In . SVG Version: 6.00 Build 0)  -->
<svg version="1.1" id="Layer_1" xmlns="http://www.w3.org/2000/svg" xmlns:xlink="http://www.w3.org/1999/xlink" x="0px" y="0px"
	 viewBox="0 0 180.6 46" style="enable-background:new 0 0 180.6 46;" xml:space="preserve">
<style type="text/css">
	.st0{fill:#AAAAAA;}
</style>
<title>Phone_Icon_v2</title>
<g id="rd-5">
	<g id="Artboard">
		<path id="Combined-Shape" class="st0" d="M2.6,0h25.6c1.4,0,2.6,1.1,2.6,2.6v40.9c0,1.4-1.1,2.6-2.6,2.6H2.6C1.1,46,0,44.9,0,43.4
			V2.6l0,0C0,1.1,1.1,0,2.6,0z M3.8,5.1v34.5h23V5.1H3.8z M10.9,1.6c-0.4,0-0.6,0.3-0.6,0.6v0.6c0,0.4,0.3,0.6,0.6,0.6h8.9
			c0.4,0,0.6-0.3,0.6-0.6V2.2c0-0.4-0.3-0.6-0.6-0.6H10.9z M15.3,44.7c1.1,0,1.9-0.9,1.9-1.9c0-1.1-0.9-1.9-1.9-1.9
			s-1.9,0.9-1.9,1.9C13.4,43.9,14.3,44.7,15.3,44.7z"/>
	</g>
</g>
<g id="rd-5_1_">
	<g id="Artboard_1_">
		<path id="Combined-Shape_1_" class="st0" d="M53.2,0H89c1.4,0,2.6,1.1,2.6,2.6v40.9c0,1.4-1.1,2.6-2.6,2.6H53.2
			c-1.4,0-2.6-1.1-2.6-2.6V2.6l0,0C50.7,1.1,51.8,0,53.2,0z M54.5,3.8v35.8h33.2V3.8H54.5z M71.1,44.7c1.1,0,1.9-0.9,1.9-1.9
			c0-1.1-0.9-1.9-1.9-1.9c-1.1,0-1.9,0.9-1.9,1.9C69.2,43.9,70.1,44.7,71.1,44.7z"/>
	</g>
</g>
<g id="rd-5_2_">
	<g id="Artboard_2_">
		<g id="Group-6">
			<path id="Combined-Shape_2_" class="st0" d="M140.9,40.9v-2.6h-24.3c-2.8,0-5.1-2.3-5.1-5.1V5.1l0,0c0-2.8,2.3-5.1,5.1-5.1h58.8
				c2.8,0,5.1,2.3,5.1,5.1v28.1c0,2.8-2.3,5.1-5.1,5.1h-24.3v2.6h6.4c3.1,0,4.8,1.7,5.1,5.1h-33.2c0-3.5,1.7-5.2,5.1-5.1H140.9z
				 M117.9,3.8c-1.4,0-2.6,1.1-2.6,2.6v25.6c0,1.4,1.1,2.6,2.6,2.6h56.2c1.4,0,2.6-1.1,2.6-2.6V6.4c0-1.4-1.1-2.6-2.6-2.6H117.9z"/>
		</g>
	</g>
</g>
</svg>
