<?xml version="1.0" encoding="UTF-8"?>
<svg width="200px" height="80px" viewBox="0 0 200 80" version="1.1" xmlns="http://www.w3.org/2000/svg" xmlns:xlink="http://www.w3.org/1999/xlink">
    <!-- Generator: Sketch 50.2 (55047) - http://www.bohemiancoding.com/sketch -->
    <title>Group 14</title>
    <desc>Created with Sketch.</desc>
    <defs>
        <polygon id="path-1" points="0 76 94.9318019 76 94.9318019 0 0 0"></polygon>
        <polygon id="path-3" points="9.47624626e-05 0.216343261 35.377986 0.216343261 35.377986 46.3824384 9.47624626e-05 46.3824384"></polygon>
        <polygon id="path-5" points="0 46.8706746 35.377986 46.8706746 35.377986 0.488236193 0 0.488236193"></polygon>
        <polygon id="path-7" points="4.99061914e-05 0.365851786 18.9758311 0.365851786 18.9758311 36.6315476 4.99061914e-05 36.6315476"></polygon>
        <polygon id="path-9" points="0 36.7296182 18.9758311 36.7296182 18.9758311 0.463922321 0 0.463922321"></polygon>
        <polygon id="path-11" points="0 50.9618417 85.8547149 50.9618417 85.8547149 -2.84217094e-14 0 -2.84217094e-14"></polygon>
    </defs>
    <g id="----PPV-Page---New-Hero-v8" stroke="none" stroke-width="1" fill="none" fill-rule="evenodd">
        <g id="DirectPrioritized_Mobile" transform="translate(-103.000000, -703.000000)">
            <g id="Group-12" transform="translate(15.000000, 703.000000)">
                <g id="Group-9" transform="translate(88.000000, 0.000000)">
                    <g id="Group-14">
                        <g id="Group-7" transform="translate(63.000000, 0.000000)">
                            <path d="M29.8244623,72.6593407 L65.9257171,72.6593407 C66.5780954,72.6593407 67.1069634,73.1210688 67.1069634,73.6903142 L67.1069634,74.1335482 C67.1069634,74.7034204 66.5780954,75.1648352 65.9257171,75.1648352 L29.8244623,75.1648352 C29.1720841,75.1648352 28.6432161,74.7034204 28.6432161,74.1335482 L28.6432161,73.6903142 C28.6432161,73.1210688 29.1720841,72.6593407 29.8244623,72.6593407" id="Fill-1" fill="#7D7D7D"></path>
                            <mask id="mask-2" fill="white">
                                <use xlink:href="#path-1"></use>
                            </mask>
                            <g id="Clip-4"></g>
                            <polygon id="Fill-3" fill="#7D7D7D" mask="url(#mask-2)" points="39.2821249 73.4945055 55.649677 73.4945055 55.649677 56.7912088 39.2821249 56.7912088"></polygon>
                            <path d="M93.0476112,66.8131868 L1.88454843,66.8131868 C0.843897066,66.8131868 0,65.9547117 0,64.8948208 L0,1.91836598 C0,0.858839373 0.843897066,0 1.88454843,0 L93.0476112,0 C94.0882625,0 94.9318019,0.858839373 94.9318019,1.91836598 L94.9318019,64.8948208 C94.9318019,65.9547117 94.0882625,66.8131868 93.0476112,66.8131868" id="Fill-5" fill="#7D7D7D" mask="url(#mask-2)"></path>
                            <polygon id="Fill-6" fill="#010202" mask="url(#mask-2)" points="2.45513281 64.3076923 92.4766691 64.3076923 92.4766691 2.50549451 2.45513281 2.50549451"></polygon>
                        </g>
                        <g id="Group-8" transform="translate(151.000000, 29.000000)">
                            <g id="Group-3">
                                <mask id="mask-4" fill="white">
                                    <use xlink:href="#path-3"></use>
                                </mask>
                                <g id="Clip-2"></g>
                                <path d="M31.5875823,46.3826005 L3.79059327,46.3826005 C1.70550321,46.3826005 9.47624626e-05,44.6310959 9.47624626e-05,42.490368 L9.47624626e-05,4.10841368 C9.47624626e-05,1.96768575 1.70550321,0.216181085 3.79059327,0.216181085 L31.5875823,0.216181085 C33.6723565,0.216181085 35.3780808,1.96768575 35.3780808,4.10841368 L35.3780808,42.490368 C35.3780808,44.6310959 33.6723565,46.3826005 31.5875823,46.3826005" id="Fill-1" fill="#7D7D7D" mask="url(#mask-4)"></path>
                            </g>
                            <mask id="mask-6" fill="white">
                                <use xlink:href="#path-5"></use>
                            </mask>
                            <g id="Clip-5"></g>
                            <polygon id="Fill-4" fill="#010202" mask="url(#mask-6)" points="2.83023888 41.9883126 32.5477471 41.9883126 32.5477471 3.41765335 2.83023888 3.41765335"></polygon>
                            <path d="M18.3965527,1.95294477 C18.3965527,2.2226651 18.1854349,2.44118097 17.9248463,2.44118097 C17.6642576,2.44118097 17.4531398,2.2226651 17.4531398,1.95294477 C17.4531398,1.68322444 17.6642576,1.46470858 17.9248463,1.46470858 C18.1854349,1.46470858 18.3965527,1.68322444 18.3965527,1.95294477" id="Fill-6" fill="#010202" mask="url(#mask-6)"></path>
                            <path d="M18.3965527,44.4294936 C18.3965527,44.9686234 17.9742502,45.405966 17.4529894,45.405966 C16.9320293,45.405966 16.5097268,44.9686234 16.5097268,44.4294936 C16.5097268,43.8903638 16.9320293,43.4530212 17.4529894,43.4530212 C17.9742502,43.4530212 18.3965527,43.8903638 18.3965527,44.4294936" id="Fill-7" fill="#010202" mask="url(#mask-6)"></path>
                        </g>
                        <g id="Group-7" transform="translate(181.000000, 43.000000)">
                            <g id="Group-3" transform="translate(0.000000, 0.098071)">
                                <mask id="mask-8" fill="white">
                                    <use xlink:href="#path-7"></use>
                                </mask>
                                <g id="Clip-2"></g>
                                <path d="M15.9815096,36.6317331 L2.99442139,36.6317331 C1.34751707,36.6317331 4.99061914e-05,35.3797688 4.99061914e-05,33.8495902 L4.99061914e-05,3.14771643 C4.99061914e-05,1.61753786 1.34751707,0.365573571 2.99442139,0.365573571 L15.9815096,0.365573571 C17.6284139,0.365573571 18.9758811,1.61753786 18.9758811,3.14771643 L18.9758811,33.8495902 C18.9758811,35.3797688 17.6284139,36.6317331 15.9815096,36.6317331" id="Fill-1" fill="#7D7D7D" mask="url(#mask-8)"></path>
                            </g>
                            <mask id="mask-10" fill="white">
                                <use xlink:href="#path-9"></use>
                            </mask>
                            <g id="Clip-5"></g>
                            <polygon id="Fill-4" fill="#010202" mask="url(#mask-10)" points="1.26112946 33.5037235 17.7147017 33.5037235 17.7147017 3.9216622 1.26112946 3.9216622"></polygon>
                            <path d="M12.3389565,2.79888208 L6.63667505,2.79888208 C6.42756811,2.79888208 6.25638987,2.63983625 6.25638987,2.44554994 C6.25638987,2.25126363 6.42756811,2.09268149 6.63667505,2.09268149 L12.3389565,2.09268149 C12.5480634,2.09268149 12.7192417,2.25126363 12.7192417,2.44554994 C12.7192417,2.63983625 12.5480634,2.79888208 12.3389565,2.79888208" id="Fill-6" fill="#010202" mask="url(#mask-10)"></path>
                        </g>
                        <g id="Group-7" transform="translate(0.000000, 29.000000)">
                            <path d="M51.152617,46.7321439 L51.152617,47.1478489 C51.152617,47.8956043 50.542566,48.5072374 49.7967447,48.5072374 L36.0579702,48.5072374 C35.3121489,48.5072374 34.7020979,47.8956043 34.7020979,47.1478489 L34.7020979,46.7321439 L0.000182978723,46.7321439 L0.000182978723,48.9229424 C0.000182978723,50.0442086 0.915442553,50.9618417 2.03380851,50.9618417 L83.8209064,50.9618417 C84.9392723,50.9618417 85.8545319,50.0442086 85.8545319,48.9229424 L85.8545319,46.7321439 L51.152617,46.7321439 Z" id="Fill-1" fill="#7D7D7D"></path>
                            <path d="M76.0623523,45.0656547 L9.79221617,45.0656547 C7.77945021,45.0656547 6.1326417,43.4145755 6.1326417,41.3965899 L6.1326417,3.66906475 C6.1326417,1.65107914 7.77945021,-2.84217094e-14 9.79221617,-2.84217094e-14 L76.0623523,-2.84217094e-14 C78.0751183,-2.84217094e-14 79.7219268,1.65107914 79.7219268,3.66906475 L79.7219268,41.3965899 C79.7219268,43.4145755 78.0751183,45.0656547 76.0623523,45.0656547" id="Fill-3" fill="#7D7D7D"></path>
                            <mask id="mask-12" fill="white">
                                <use xlink:href="#path-11"></use>
                            </mask>
                            <g id="Clip-6"></g>
                            <polygon id="Fill-5" fill="#010202" mask="url(#mask-12)" points="8.78773617 42.7189209 77.0669787 42.7189209 77.0669787 2.34710072 8.78773617 2.34710072"></polygon>
                        </g>
                    </g>
                </g>
            </g>
        </g>
    </g>
</svg>