<?xml version="1.0" encoding="utf-8"?>
<!-- Generator: Adobe Illustrator 20.1.0, SVG Export Plug-In . SVG Version: 6.00 Build 0)  -->
<svg version="1.1" id="Layer_1" xmlns="http://www.w3.org/2000/svg" xmlns:xlink="http://www.w3.org/1999/xlink" x="0px" y="0px"
	 viewBox="0 0 44 46" style="enable-background:new 0 0 44 46;" xml:space="preserve">
<style type="text/css">
	.st0{fill:#AAAAAA;}
</style>
<title>DL_Icon_v1</title>
<g id="rd-5">
	<g id="SVG-ICONS---REVISED">
		<g id="Group-2">
			<path id="Combined-Shape" class="st0" d="M43.4,45.4C43,45.8,42.5,46,41.9,46H2.1C0.9,46,0,45.1,0,44v-9.5l0,0c0-1.1,0.9-2,2.1-2
				l0,0c1.1,0,2.1,0.9,2.1,2v7.4h35.8v-7.4l0,0c0-1.1,0.9-2,2.1-2s2.1,0.9,2.1,2V44C44,44.5,43.8,45,43.4,45.4z"/>
			<path id="Combined-Shape-2" class="st0" d="M19.5,31V2l0,0c0-1.1,0.9-2,2-2c1.1,0,2,0.9,2,2v28.8l9.1-9.1c0.8-0.8,2.1-0.8,2.9,0
				l0,0c0.8,0.8,0.8,2.1,0,2.9L23.2,36.9c-0.6,1-1.8,1.3-2.8,0.7c-0.2-0.1-0.4-0.3-0.5-0.4c0,0-0.1-0.1-0.1-0.1L7.4,24.6l0,0
				c-0.8-0.8-0.8-2.1,0-2.9l0,0c0.8-0.8,2.1-0.8,2.9,0L19.5,31z"/>
		</g>
	</g>
</g>
</svg>
