<svg id="Layer_2" data-name="Layer 2" xmlns="http://www.w3.org/2000/svg" viewBox="0 0 198 198"><title>phone</title><circle cx="99" cy="99" r="99" style="fill:#ddd"/><path d="M65.22,41s4.35-2.24,7.06.59S85,60.32,85,60.32s4.1,7.38,1.16,10.56S74.69,81.65,73.34,82.76c-0.29.24-4.24,3.06-1.41,9.3S94.67,122.61,101,126.88c4,2.71,6.13,3.34,9.18,1.18,4.47-3.18,9.65-8.82,12-10.24s8.12-4.71,15.18,1.53,14.59,13.77,14.59,13.77,4.47,3.88,0,8-15.68,12.67-20.83,14.83a30.33,30.33,0,0,1-22.36-.47c-9.65-4-53.3-30.94-61.89-62.95,0,0-5.06-15.77-1.53-25.65S59.33,44.28,65.22,41Z"/></svg>