<?xml version="1.0" encoding="UTF-8" standalone="no"?>
<svg width="32px" height="32px" viewBox="0 0 32 32" version="1.1" xmlns="http://www.w3.org/2000/svg" xmlns:xlink="http://www.w3.org/1999/xlink" xmlns:sketch="http://www.bohemiancoding.com/sketch/ns">
    <!-- Generator: Sketch 3.5.2 (25235) - http://www.bohemiancoding.com/sketch -->
    <title>Slice 1</title>
    <desc>Created with Sketch.</desc>
    <defs></defs>
    <g id="Page-1" stroke="none" stroke-width="1" fill="none" fill-rule="evenodd" sketch:type="MSPage">
        <g id="PLAY-SMALL-Copy-3-+-Rectangle-186-+-Rectangle-187-+-Oval-16-Copy" sketch:type="MSLayerGroup">
            <g id="PLAY-SMALL-Copy-3" fill="#FFFFFF" sketch:type="MSShapeGroup" opacity="0.8">
                <ellipse id="Oval-1" cx="16" cy="16" rx="16" ry="16"></ellipse>
            </g>
            <g id="Rectangle-186-+-Rectangle-187-+-Oval-16" transform="translate(6.918919, 8.648649)" fill="#000000" sketch:type="MSShapeGroup">
                <path d="M2.59459459,1.75611581 C1.13199462,1.95126127 0,3.20509114 0,4.72274595 L0,10.8448216 C0,12.4957958 1.34010668,13.8378378 2.99321204,13.8378378 L14.3040853,13.8378378 C15.9544006,13.8378378 17.2972973,12.4978188 17.2972973,10.8448216 L17.2972973,4.72274595 C17.2972973,3.07177178 15.9571906,1.72972973 14.3040853,1.72972973 L7.78378378,1.72972973 L7.78378378,0.995717641 C7.78378378,0.451943887 7.3358322,0 6.78325591,0 L3.59512247,0 C3.03702195,0 2.59459459,0.445797973 2.59459459,0.995717641 L2.59459459,1.75611581 Z M8.64864865,11.2432432 C10.5592554,11.2432432 12.1081081,9.69439049 12.1081081,7.78378378 C12.1081081,5.87317708 10.5592554,4.32432432 8.64864865,4.32432432 C6.73804195,4.32432432 5.18918919,5.87317708 5.18918919,7.78378378 C5.18918919,9.69439049 6.73804195,11.2432432 8.64864865,11.2432432 Z" id="Rectangle-186"></path>
            </g>
        </g>
    </g>
</svg>