<?xml version="1.0" encoding="utf-8"?>
<!-- Generator: Adobe Illustrator 19.1.0, SVG Export Plug-In . SVG Version: 6.00 Build 0)  -->
<svg version="1.1" id="Layer_1" xmlns="http://www.w3.org/2000/svg" xmlns:xlink="http://www.w3.org/1999/xlink" x="0px" y="0px"
	 viewBox="175 -25.6 372.2 70.6" style="enable-background:new 175 -25.6 372.2 70.6;" xml:space="preserve">
<style type="text/css">
	.st0{fill:#FFFFFF;}
</style>
<g>
	<path class="st0" d="M221.5,33.6h-8.1V13.4h-8.7v20.1h-8.1v-46.4h8.1V5.8h8.7v-18.7h8.1V33.6z M224.9,10.2c0-14.2,5.2-23.1,11.5-24
		c-6.3-7.7-16.7-11.8-26.2-11.8c-10.4,0-19.8,4.5-26.2,11.7c6.2,1.2,8.3,6.4,8.3,14.4h-7.5c0-4.7-1-7.2-3.8-7.2
		c-1.3,0-2.2,0.6-2.8,1.7c-0.1,0.2-0.2,0.4-0.2,0.5c-0.2,0.6-0.3,1.3-0.3,2.1c0,9.8,16,9.3,16,24.4c0,5.9-4.5,11.4-9.6,11.4
		c6.6,7.3,15.7,11.6,26.2,11.6c10.2,0,19.3-4.3,25.8-11.2C230.1,32.4,224.9,23.8,224.9,10.2"/>
	<path class="st0" d="M182,26.2c2.3,0,3.8-2,3.8-4.9c0-6-5.2-7.1-10.8-12.2C174.9,19.3,178.1,26.2,182,26.2"/>
	<path class="st0" d="M232.9,9.5c0-7.8,2.3-15.6,6.4-15.6c4.9,0,6.2,12.1,6.2,15.9c0,8.4-2.6,15.9-6.2,15.9
		C235.1,25.7,232.9,17.7,232.9,9.5"/>
</g>
<polygon class="st0" points="313.5,-12.2 307.2,-12.2 285.4,-12.2 284.3,-12.2 279.5,-12.2 276.2,14.3 276.1,14.3 272.5,-12.2 
	265.1,-12.2 261.2,14.3 261.1,14.3 258.2,-12.2 250.7,-12.2 256.7,32.9 263.9,32.9 268,4.3 268.1,4.3 272,32.9 279.5,32.9 
	284.4,-5.3 291.4,-5.3 291.4,32.9 299.6,32.9 299.6,-5.3 307.2,-5.3 307.2,32.9 315.4,32.9 315.4,-12.2 "/>
<polygon class="st0" points="319.4,-12.2 330.4,-12.2 334,10.9 334.2,10.9 338,-12.2 348.7,-12.2 348.7,32.9 341.4,32.9 341.4,-0.2 
	341.3,-0.2 335.7,32.9 331.1,32.9 325.6,-0.2 325.5,-0.2 325.5,32.9 319.4,32.9 "/>
<polygon class="st0" points="352.8,-12.2 371.4,-12.2 371.4,-5.3 361,-5.3 361,6.3 368.6,6.3 368.6,13.6 361,13.6 361,26 371.8,26 
	371.8,32.9 352.8,32.9 "/>
<polygon class="st0" points="488.4,-12.2 499.4,-12.2 503,10.9 503.2,10.9 507,-12.2 517.7,-12.2 517.7,32.9 510.4,32.9 510.4,-0.2 
	510.3,-0.2 504.7,32.9 500.1,32.9 494.6,-0.2 494.5,-0.2 494.5,32.9 488.4,32.9 "/>
<polygon class="st0" points="521.8,-12.2 540.4,-12.2 540.4,-5.3 530,-5.3 530,6.3 537.6,6.3 537.6,13.6 530,13.6 530,26 540.8,26 
	540.8,32.9 521.8,32.9 "/>
<path class="st0" d="M391.8,15.9l3-18.3h0.1l3,18.3H391.8z M449.1-12.2l-4.8,17.7h-0.1L440-12.3h-15.3v24.8h-0.1l-7.7-24.7h-8.1
	v44.4l-9-44.4h-8.6L381.9,33h7.4l1.6-9.8h8l1.6,9.8h14.9V5h0.1l9.1,28h6.7v-44.9l7.9,26.3V33h8.3V14.4l6.6-19.6h6.2V33h8.2V-5.3h7.5
	v38.2h8.2v-45.1H449.1z"/>
<g>
	<path class="st0" d="M545-10.9h-0.5v0.9h0.5c0.3,0,0.5-0.2,0.5-0.4C545.4-10.7,545.2-10.9,545-10.9 M545.4-8.7l-0.6-1h-0.4v1h-0.3
		v-2.5h0.8c0.4,0,0.8,0.3,0.8,0.7s-0.2,0.6-0.5,0.7l0.6,1.1C545.8-8.7,545.4-8.7,545.4-8.7z M544.9-11.9c-1.1,0-1.9,0.9-1.9,1.9
		c0,1.1,0.8,1.9,1.9,1.9c1,0,1.9-0.9,1.9-1.9C546.8-11,545.9-11.9,544.9-11.9 M544.9-7.7c-1.2,0-2.3-1-2.3-2.3s1-2.3,2.3-2.3
		c1.2,0,2.3,1,2.3,2.3C547.1-8.7,546.1-7.7,544.9-7.7"/>
</g>
</svg>
