<?xml version="1.0" encoding="utf-8"?>
<!-- Generator: Adobe Illustrator 19.1.0, SVG Export Plug-In . SVG Version: 6.00 Build 0)  -->
<svg version="1.1" id="Layer_1" xmlns="http://www.w3.org/2000/svg" xmlns:xlink="http://www.w3.org/1999/xlink" x="0px" y="0px"
	 viewBox="0 0 21 21" style="enable-background:new 0 0 21 21;" xml:space="preserve">
<style type="text/css">
	.st0{fill:#FFFFFF;}
</style>
<path class="st0" d="M20.5,10.5c0,5.5-4.5,10-10,10s-10-4.5-10-10c0-5.5,4.5-10,10-10S20.5,5,20.5,10.5z M14.7,14.6
	c0,0-1.2,0.3-2.1,0.3c-1.5,0-1.7-0.4-1.7-1.9V9.7h3.3V6.8h-3.3V3.4H8.8c-0.3,2.7-1.5,3.4-3.3,4v2.1h2.1v4.3c0,2.4,1,3.7,3.7,3.7
	c2.1,0,3.3-0.8,3.3-0.8V14.6z"/>
</svg>
