<?xml version="1.0" encoding="utf-8"?>
<!-- Generator: Adobe Illustrator 19.1.0, SVG Export Plug-In . SVG Version: 6.00 Build 0)  -->
<svg version="1.1" id="Layer_1" xmlns="http://www.w3.org/2000/svg" xmlns:xlink="http://www.w3.org/1999/xlink" x="0px" y="0px"
	 viewBox="0 0 21 21" style="enable-background:new 0 0 21 21;" xml:space="preserve">
<style type="text/css">
	.st0{fill:#FFFFFF;}
</style>
<path class="st0" d="M10.5,20.6c-5.5,0-10-4.5-10-10c0-0.7,0.1-1.4,0.2-2.1h4.8c-0.3,0.6-0.4,1.3-0.4,2.1c0,3,2.4,5.4,5.4,5.4
	s5.4-2.4,5.4-5.4c0-0.7-0.1-1.4-0.4-2.1h4.8c0.1,0.7,0.2,1.4,0.2,2.1C20.5,16.2,16,20.6,10.5,20.6z M14.4,6.9c-1-1-2.4-1.7-3.9-1.7
	S7.6,5.9,6.6,6.9H1.2c1.5-3.7,5.1-6.2,9.3-6.2s7.8,2.6,9.3,6.2H14.4z M14.2,10.6c0,2.1-1.7,3.8-3.7,3.8c-2.1,0-3.7-1.7-3.7-3.8
	c0-2.1,1.7-3.7,3.7-3.7C12.6,6.9,14.2,8.6,14.2,10.6z"/>
</svg>
