<?xml version="1.0" encoding="utf-8"?>
<!-- Generator: Adobe Illustrator 19.1.0, SVG Export Plug-In . SVG Version: 6.00 Build 0)  -->
<svg version="1.1" id="Layer_1" xmlns="http://www.w3.org/2000/svg" xmlns:xlink="http://www.w3.org/1999/xlink" x="0px" y="0px"
	 viewBox="0 0 21 21" style="enable-background:new 0 0 21 21;" xml:space="preserve">
<style type="text/css">
	.st0{fill:#FFFFFF;}
</style>
<path class="st0" d="M10.5,20.5c-1,0-1.9-0.1-2.8-0.4c0.4-0.6,0.8-1.4,1-2.1c0.1-0.4,0.7-2.8,0.7-2.8c0.3,0.7,1.4,1.3,2.5,1.3
	c3.2,0,5.4-2.9,5.4-6.9c0-3-2.5-5.7-6.3-5.7c-4.8,0-7.2,3.4-7.2,6.2c0,1.7,0.6,3.3,2,3.8c0.2,0.1,0.4,0,0.5-0.3
	c0-0.2,0.2-0.6,0.2-0.8c0.1-0.3,0-0.3-0.2-0.6c-0.4-0.5-0.6-1.1-0.6-2c0-2.5,1.9-4.8,4.9-4.8c2.7,0,4.1,1.6,4.1,3.8
	c0,2.9-1.3,5.3-3.2,5.3c-1,0-1.8-0.9-1.6-1.9c0.3-1.3,0.9-2.6,0.9-3.5c0-0.8-0.4-1.5-1.3-1.5c-1.1,0-1.9,1.1-1.9,2.6
	c0,0.9,0.3,1.6,0.3,1.6s-1.1,4.6-1.3,5.5c-0.2,0.7-0.2,1.6-0.2,2.3c-3.5-1.6-6-5.1-6-9.2c0-5.5,4.5-10,10-10s10,4.5,10,10
	C20.5,16,16,20.5,10.5,20.5z"/>
</svg>
