<?xml version="1.0" encoding="utf-8"?>
<!-- Generator: Adobe Illustrator 19.2.0, SVG Export Plug-In . SVG Version: 6.00 Build 0)  -->
<svg version="1.1" id="Layer_1" xmlns="http://www.w3.org/2000/svg" xmlns:xlink="http://www.w3.org/1999/xlink" x="0px" y="0px"
	 viewBox="0 0 125 75" style="enable-background:new 0 0 125 75;" xml:space="preserve">
<style type="text/css">
	.st0{fill:#6D6E70;}
	.st1{fill:#BF0C3F;}
	.st2{fill:#FFFFFF;}
</style>
<title>LG_Logo_250x150</title>
<g>
	<polyline class="st0" points="69.1,28.4 65,28.4 65,46.4 77.7,46.4 77.7,42.9 69.1,42.9 69.1,28.4 	"/>
	<path class="st0" d="M86.9,39.6h3.4v3.2c-1,0.3-2,0.4-3,0.4c-3.8,0-5-1.9-5-5.8c0-3.7,1.2-5.9,4.9-5.9c2.1,0,3.3,0.7,4.3,1.9L94,31
		c-1.6-2.2-4.4-2.9-6.9-2.9c-5.8,0-8.8,3.1-8.8,9.2s2.8,9.3,8.8,9.3c2.8,0,5.6-0.8,7-1.7v-8.7h-7.2V39.6"/>
	<path class="st1" d="M44.8,51.4c7.7,0,13.9-6.2,13.9-13.9s-6.2-14-13.9-14s-14,6.2-14,14l0,0C30.9,45.2,37.1,51.4,44.8,51.4"/>
	<polyline class="st2" points="44.3,31.3 44.3,43.6 48.2,43.6 48.2,42.5 45.4,42.5 45.4,31.3 44.3,31.3 	"/>
	<path class="st2" d="M40.4,34.7c0.9,0,1.7-0.8,1.7-1.7c0-0.9-0.8-1.6-1.7-1.6c-0.9,0-1.6,0.8-1.6,1.6C38.7,34,39.5,34.7,40.4,34.7
		L40.4,34.7"/>
	<path class="st2" d="M45.4,25.9h-0.5c-6.4,0-11.7,5.2-11.7,11.6s5.2,11.7,11.6,11.7S56.5,44,56.5,37.6c0,0,0,0,0-0.1V37h-8.3V38
		h7.2v0.1C55,44,50,48.4,44.1,48s-10.2-5.4-9.8-11.2c0.4-5.5,4.9-9.8,10.6-9.8h0.5V25.9"/>
</g>
</svg>
