<svg xmlns="http://www.w3.org/2000/svg" width="250" height="150" viewBox="0 0 250 150"><path d="M33.9,81.43A4,4,0,0,1,34,83.66c-0.25,1-.93,2-2.93,2S28,84.59,28,83V80H20v2.31c0,6.7,5.27,8.72,10.91,8.72,5.43,0,9.9-1.85,10.62-6.86a14.65,14.65,0,0,0,0-4.92C40.18,73,28.78,71.13,27.94,67.61a3.84,3.84,0,0,1,0-1.58,2.48,2.48,0,0,1,2.74-2,2.56,2.56,0,0,1,2.79,2.72V68.6h7.49V66.48c0-6.54-5.88-7.56-10.13-7.56-5.34,0-9.7,1.77-10.5,6.67a10.3,10.3,0,0,0,.07,4C21.68,75.77,32.35,77.55,33.9,81.43Zm97.62-.06a3.89,3.89,0,0,1,.06,2.2c-0.24,1-.92,2-2.9,2s-3-1.07-3-2.69V80h-8v2.29c0,6.63,5.22,8.64,10.81,8.64,5.38,0,9.8-1.84,10.51-6.8a14.41,14.41,0,0,0,0-4.88c-1.25-6.22-12.53-8.08-13.37-11.56a3.81,3.81,0,0,1,0-1.56,2.46,2.46,0,0,1,2.72-2,2.53,2.53,0,0,1,2.76,2.69v1.84h7.42V66.57c0-6.47-5.82-7.49-10-7.49-5.28,0-9.6,1.75-10.39,6.6a10.2,10.2,0,0,0,.07,4C119.42,75.77,130,77.53,131.52,81.37ZM193.81,84l-0.42-24.17h7.43V89.58H190.14l-7.59-25,0.42,25h-7.38V59.87h11.15ZM58.85,62.1L54.66,89.89H46.55l5.56-30H65.47l5.53,30H62.93Zm43.81,0L97.49,89.89H89.87L84.7,62.1,84.5,89.89H77l0.66-30H89.89l3.79,23.47h0l3.79-23.47h12.24l0.66,30h-7.51Zm54.06,23.31a2.7,2.7,0,0,0,2.88-2.18,6.16,6.16,0,0,0,.07-1.15V59.87h7.6V81.4c0,0.55,0,1.68-.07,2-0.53,5.6-5,7.42-10.48,7.42s-10-1.82-10.48-7.42c0-.29-0.09-1.42-0.07-2V59.87h7.6V82.09a6.1,6.1,0,0,0,.07,1.15A2.7,2.7,0,0,0,156.72,85.41Zm62.63-.31a2.81,2.81,0,0,0,3.07-2.18,6.9,6.9,0,0,0,.07-1.14V77.42h-3.08V73h10.64v8c0,0.56,0,1-.11,2-0.5,5.47-5.23,7.42-10.56,7.42s-10.06-2-10.56-7.42a19.79,19.79,0,0,1-.11-2V68.46c0-.54.07-1.48,0.13-2,0.67-5.61,5.22-7.42,10.54-7.42s10,1.79,10.54,7.42c0.09,1,.06,2,0.07,2v1h-7.57V67.77a7,7,0,0,0-.1-1.14,2.73,2.73,0,0,0-3-2.18,2.77,2.77,0,0,0-3,2.18,6.93,6.93,0,0,0-.12,1.42V81.78a6.84,6.84,0,0,0,.07,1.14A2.81,2.81,0,0,0,219.35,85.1Z"/></svg>