<?xml version="1.0" encoding="UTF-8"?>
<svg width="144px" height="32px" viewBox="0 0 144 32" version="1.1" xmlns="http://www.w3.org/2000/svg" xmlns:xlink="http://www.w3.org/1999/xlink">
    <defs>
        <polygon id="path-1" points="0 0.128825806 93.1208702 0.128825806 93.1208702 31.9876129 0 31.9876129"></polygon>
    </defs>
    <g id="showtime-ppv" stroke="none" stroke-width="1" fill="none" fill-rule="evenodd">
        <g id="DirectPrioritized_closed" transform="translate(-648.000000, -419.000000)">
            <g id="Showtime_PPV_Logo_W" transform="translate(648.000000, 419.000000)">
                <g>
                    <g id="Group-5">
                        <mask id="mask-2" fill="white">
                            <use xlink:href="#path-1"></use>
                        </mask>
                        <g id="Clip-2"></g>
                        <polygon id="Fill-1" fill="#FFFFFE" mask="url(#mask-2)" points="91.0911851 28.2683871 93.1208702 28.2683871 93.1208702 3.70787097 91.0911851 3.70787097"></polygon>
                        <path d="M20.3728012,26.8067097 L16.8412891,26.8067097 L16.8412891,17.7323355 L13.0235625,17.7323355 L13.0235625,26.8067097 L9.49205042,26.8067097 L9.49205042,5.87499355 L13.0235625,5.87499355 L13.0235625,14.3108129 L16.8412891,14.3108129 L16.8412891,5.87499355 L20.3728012,5.87499355 L20.3728012,26.8067097 Z M21.8392511,16.283871 C21.8392511,9.89935484 24.1275686,5.87499355 26.8552014,5.45713548 C24.1295673,1.9844129 19.5685222,0.128825806 15.4252065,0.128825806 C10.8671595,0.128825806 6.7682151,2.17042581 3.94404479,5.41935484 C6.64109746,5.97636129 7.55830323,8.30823226 7.55830323,11.9120516 L4.26123929,11.9120516 C4.26123929,9.78952258 3.82772015,8.68314839 2.60731081,8.68314839 C2.06406276,8.68314839 1.63893819,8.96908387 1.38370355,9.4592 C1.34532841,9.5419871 1.30695327,9.62683871 1.27637308,9.71230968 C1.17883627,9.98193548 1.13066748,10.2920258 1.13066748,10.6481548 C1.13066748,15.0647742 8.14832098,14.8436645 8.14832098,21.6284903 C8.14832098,24.2799484 6.18299425,26.7515871 3.97162692,26.7515871 C6.87754427,30.0331355 10.8503704,32 15.4252065,32 C19.8749237,32 23.8831269,30.0525419 26.6951052,26.9429677 C24.103784,26.263329 21.8392511,22.4088774 21.8392511,16.283871 Z" id="Fill-3" fill="#FFFFFE" mask="url(#mask-2)"></path>
                        <path d="M3.04962425,23.4671484 C4.03418639,23.4671484 4.7349324,22.5746581 4.7349324,21.2733935 C4.7349324,18.5777548 2.45061233,18.0488258 0.000599611532,15.7749677 C-0.0347774689,20.3961806 1.35132452,23.4671484 3.04962425,23.4671484" id="Fill-4" fill="#FFFFFE" mask="url(#mask-2)"></path>
                    </g>
                    <path d="M25.1428571,16.2467072 C25.1428571,12.6996771 26.1082425,9.14285714 27.8599515,9.14285714 C29.951394,9.14285714 30.4761905,14.6349321 30.4761905,16.3681423 C30.4761905,20.1757476 29.3617482,23.6190476 27.8599515,23.6190476 C26.0644934,23.6190476 25.1428571,19.9980733 25.1428571,16.2467072" id="Fill-6" fill="#FFFFFE"></path>
                    <polyline id="Fill-7" fill="#FFFFFE" points="60.8823912 6.85714286 46.0647184 6.85714286 44.6594536 18.9296362 44.6035296 18.9296362 43.0368613 6.85714286 39.8127726 6.85714286 38.097239 18.9296362 38.0443003 18.9296362 36.7799401 6.85714286 33.5238095 6.85714286 36.1436801 27.4285714 39.2831862 27.4285714 41.0526537 14.3937416 41.1055924 14.3937416 42.8123692 27.4285714 46.0647184 27.4285714 48.2324205 10.0330827 51.2732138 10.0330827 51.2732138 27.4285714 54.8535444 27.4285714 54.8535444 10.0330827 58.1385325 10.0330827 58.1385325 27.4285714 61.7142857 27.4285714 61.7142857 6.85714286 60.8823912 6.85714286"></polyline>
                    <polyline id="Fill-8" fill="#FFFFFE" points="63.2380952 6.85714286 67.7913433 6.85714286 69.3205001 17.4007041 69.3710727 17.4007041 70.9804612 6.85714286 75.4285714 6.85714286 75.4285714 27.4285714 72.3738703 27.4285714 72.3738703 12.3447347 72.3223471 12.3447347 70.0049417 27.4285714 68.1071371 27.4285714 65.8169193 12.3447347 65.7644454 12.3447347 65.7644454 27.4285714 63.2380952 27.4285714 63.2380952 6.85714286"></polyline>
                    <polyline id="Fill-9" fill="#FFFFFE" points="78.4761905 6.85714286 86.6623071 6.85714286 86.6623071 10.0330827 82.0972396 10.0330827 82.0972396 15.292868 85.4681591 15.292868 85.4681591 18.6467556 82.0972396 18.6467556 82.0972396 24.2484593 86.8571429 24.2484593 86.8571429 27.4285714 78.4761905 27.4285714 78.4761905 6.85714286"></polyline>
                    <path d="M87.1933244,25.5683876 C87.4105617,25.7866152 87.6950353,25.9047619 88.0008004,25.9047619 C88.6336222,25.9047619 89.1428571,25.3965234 89.1428571,24.7575082 C89.1428571,24.4596635 89.0253537,24.1736495 88.8127589,23.9522244 C88.5918396,23.7395924 88.3068857,23.6190476 88.0008004,23.6190476 C87.6950353,23.6190476 87.4105617,23.7395924 87.1933244,23.9522244 C86.9775279,24.1736495 86.8571429,24.4596635 86.8571429,24.7575082 C86.8571429,25.0647855 86.9775279,25.35016 87.1933244,25.5683876 Z M87.0263542,24.7575082 C87.0263542,24.5007511 87.1289696,24.254066 87.3113081,24.0711704 C87.4946071,23.8930711 87.738899,23.7899526 88.0008004,23.7899526 C88.2620615,23.7899526 88.5065135,23.8930711 88.6928541,24.0711704 C88.8734317,24.254066 88.9760471,24.5007511 88.9760471,24.7575082 C88.9760471,25.3004393 88.5396514,25.7322582 88.0008004,25.7322582 C87.738899,25.7322582 87.4946071,25.6353747 87.3113081,25.4524792 C87.1289696,25.2689442 87.0263542,25.0230585 87.0263542,24.7575082 Z" id="Fill-10" fill="#FFFFFE"></path>
                    <path d="M88.3809524,25.9047619 L88.1746087,25.1973732 C88.2972034,25.1526663 88.3705496,24.9917589 88.3705496,24.8095356 C88.3705496,24.6793761 88.3297286,24.5511029 88.2592794,24.4739504 C88.1869867,24.3977411 88.1050812,24.3809524 88.0159334,24.3809524 L87.6190476,24.3809524 L87.6190476,25.9047619 L87.7520452,25.9047619 L87.7520452,25.249437 L88.0463516,25.249437 L88.2424242,25.9047619 L88.3809524,25.9047619 Z M87.7520452,25.0923024 L87.7520452,24.5501598 L88.0159334,24.5501598 C88.0707126,24.5501598 88.1178543,24.5501598 88.1642059,24.5958099 C88.2147713,24.6412714 88.2408441,24.7193671 88.2408441,24.8031219 C88.2408441,24.8793313 88.2231989,24.9536543 88.1830362,25.010434 C88.1333926,25.0885297 88.0707126,25.0923024 88.0002634,25.0923024 L87.7520452,25.0923024 Z" id="Fill-11" fill="#FFFFFE"></path>
                    <polyline id="Fill-12" fill="#FFFFFE" points="139.670709 6.85714286 136.746842 21.0234676 133.85062 6.85714286 128.761905 6.85714286 133.794721 27.4285714 138.939336 27.4285714 144 6.85714286 139.670709 6.85714286"></polyline>
                    <path d="M120.232068,10.5792164 L120.855136,10.5792164 C123.178225,10.5792164 124.226298,11.2139902 124.226298,13.0027466 C124.226298,14.791503 123.178225,15.4264854 120.855136,15.4264854 L120.232068,15.4264854 L120.232068,10.5792164 Z M122.016886,6.85714286 L115.047619,6.85714286 L115.047619,27.4285714 L120.232068,27.4285714 L120.232068,19.0039982 C121.053609,19.0903591 121.789943,19.1479331 122.441891,19.1479331 C125.174828,19.1479331 127.185359,18.307687 128.352229,16.8001252 C129.120515,15.8076 129.52381,14.5261621 129.52381,13.0027466 C129.52381,8.93460348 127.031128,6.85714286 122.016886,6.85714286 Z" id="Fill-13" fill="#FFFFFE"></path>
                    <path d="M103.469959,10.5792164 L104.093232,10.5792164 C106.416321,10.5792164 107.464394,11.2139902 107.464394,13.0027466 C107.464394,14.791503 106.416321,15.4264854 104.093232,15.4264854 L103.469959,15.4264854 L103.469959,10.5792164 Z M105.254776,6.85714286 L98.2857143,6.85714286 L98.2857143,27.4285714 L103.469959,27.4285714 L103.469959,19.0039982 C104.291499,19.0903591 105.028038,19.1479331 105.679577,19.1479331 C108.412719,19.1479331 110.423454,18.307687 111.590324,16.8001252 C112.358611,15.8076 112.761905,14.5261621 112.761905,13.0027466 C112.761905,8.93460348 110.268814,6.85714286 105.254776,6.85714286 Z" id="Fill-14" fill="#FFFFFE"></path>
                </g>
            </g>
        </g>
    </g>
</svg>